<?xml version="1.0" encoding="utf-8"?>
<!-- Generator: Adobe Illustrator 24.2.1, SVG Export Plug-In . SVG Version: 6.00 Build 0)  -->
<!DOCTYPE svg PUBLIC "-//W3C//DTD SVG 1.1//EN" "http://www.w3.org/Graphics/SVG/1.1/DTD/svg11.dtd" [
	<!ENTITY ns_extend "http://ns.adobe.com/Extensibility/1.0/">
	<!ENTITY ns_ai "http://ns.adobe.com/AdobeIllustrator/10.0/">
	<!ENTITY ns_graphs "http://ns.adobe.com/Graphs/1.0/">
	<!ENTITY ns_vars "http://ns.adobe.com/Variables/1.0/">
	<!ENTITY ns_imrep "http://ns.adobe.com/ImageReplacement/1.0/">
	<!ENTITY ns_sfw "http://ns.adobe.com/SaveForWeb/1.0/">
	<!ENTITY ns_custom "http://ns.adobe.com/GenericCustomNamespace/1.0/">
	<!ENTITY ns_adobe_xpath "http://ns.adobe.com/XPath/1.0/">
]>
<svg version="1.1" id="Layer_1" xmlns:x="&ns_extend;" xmlns:i="&ns_ai;" xmlns:graph="&ns_graphs;"
	 xmlns="http://www.w3.org/2000/svg" xmlns:xlink="http://www.w3.org/1999/xlink" x="0px" y="0px" width="2048px" height="2048px"
	 viewBox="0 0 2048 2048" style="enable-background:new 0 0 2048 2048;" xml:space="preserve">
<style type="text/css">
	.Drop_x0020_Shadow{fill:none;}
	.Round_x0020_Corners_x0020_2_x0020_pt{fill:#FFFFFF;stroke:#231F20;stroke-miterlimit:10;}
	.Live_x0020_Reflect_x0020_X{fill:none;}
	.Bevel_x0020_Soft{fill:url(#SVGID_1_);}
	.Dusk{fill:#FFFFFF;}
	.Foliage_GS{fill:#FFDD00;}
	.Pompadour_GS{fill-rule:evenodd;clip-rule:evenodd;fill:#44ADE2;}
	.st0{fill:#EEEDEE;}
	.st1{fill:#13448C;}
	.st2{clip-path:url(#SVGID_3_);fill:#DBE0E4;}
	.st3{clip-path:url(#SVGID_3_);fill:#F95858;}
	.st4{clip-path:url(#SVGID_3_);}
	.st5{fill:#FFB19E;}
	.st6{fill:#141720;}
	.st7{clip-path:url(#SVGID_3_);fill:#521A19;}
	.st8{clip-path:url(#SVGID_3_);fill:#FFB19E;}
	.st9{clip-path:url(#SVGID_3_);fill:#EA907F;}
	.st10{clip-path:url(#SVGID_3_);fill:#FFFFFF;}
	.st11{fill:#DBE0E4;}
	.st12{fill:#EB564A;}
	.st13{fill:#FFFFFF;}
	.st14{fill:#F95858;}
	.st15{fill:#E54848;}
	.st16{fill:#1D54B5;}
	.st17{fill:#C0DBFC;}
	.st18{fill:#1A6CF3;}
	.st19{fill:#4286E8;}
	.st20{fill:#3070CE;}
	.st21{fill:#521A19;}
	.st22{fill:#EA907F;}
	.st23{fill:#0D2D54;}
	.st24{fill:#4386E9;}
</style>
<metadata>
	<sfw  xmlns="&ns_sfw;">
		<slices></slices>
		<sliceSourceBounds  bottomLeftOrigin="true" height="1568.6" width="1529.1" x="259.5" y="-1808.3"></sliceSourceBounds>
	</sfw>
</metadata>
<linearGradient id="SVGID_1_" gradientUnits="userSpaceOnUse" x1="0" y1="0" x2="0.7071" y2="0.7071">
	<stop  offset="0" style="stop-color:#DEDFE3"/>
	<stop  offset="0.1783" style="stop-color:#DADBDF"/>
	<stop  offset="0.3611" style="stop-color:#CECFD3"/>
	<stop  offset="0.546" style="stop-color:#B9BCBF"/>
	<stop  offset="0.7324" style="stop-color:#9CA0A2"/>
	<stop  offset="0.9181" style="stop-color:#787D7E"/>
	<stop  offset="1" style="stop-color:#656B6C"/>
</linearGradient>
<g>
	<path class="st0" d="M1770.5,1156.2c-19.3,53.4-72.6,106.5-140.3,155.6c-183.7,133.3-473.2,237.3-477.4,238.4
		c0,0-320.7,95.8-571.3-40.6c-250.7-136.4-346.5-715.1-258-851.5c1.7-2.6,3.5-5.2,5.5-7.7c13.2-16.8,32.2-30.5,55.5-41.5
		c152.4-71.8,490-25,615.4,56.6c147.4,95.8,326.2,84.8,691.1,322.5C1772.7,1041.4,1791.2,1098.9,1770.5,1156.2z"/>
	<path class="st0" d="M1542.4,1784.6H455.6c-29.2,0-52.9-23.7-52.9-52.9v-36.8c0-29.2,23.7-52.9,52.9-52.9h1086.9
		c29.2,0,52.9,23.7,52.9,52.9v36.8C1595.3,1760.9,1571.6,1784.6,1542.4,1784.6z"/>
	<ellipse class="st0" cx="717.5" cy="1710.3" rx="458" ry="98"/>
	<path class="st0" d="M1303.6,298.2c-104-52-221.9-70-336.3-49.4c-77,13.9-151.3,45-154.2,113.1c-6.2,143.3,160.1,206,278.7,221.5
		c118.6,15.4,257.6,47.9,311.1,82.4C1449.5,696,1607.9,450.3,1303.6,298.2z"/>
	<g>
		<path class="st1" d="M1642.3,1071.4H572.4c-44.2,0-80.1-35.9-80.1-80.1V319.8c0-44.2,35.9-80.1,80.1-80.1h1069.9
			c44.2,0,80.1,35.9,80.1,80.1v671.4C1722.4,1035.4,1686.5,1071.4,1642.3,1071.4z M572.4,241.3c-43.3,0-78.5,35.2-78.5,78.5v671.4
			c0,43.3,35.2,78.5,78.5,78.5h1069.9c43.3,0,78.5-35.2,78.5-78.5V319.8c0-43.3-35.2-78.5-78.5-78.5H572.4z"/>
		<rect x="493.1" y="393.7" class="st1" width="1228.5" height="1.6"/>
		<path class="st1" d="M624.1,340.9c-11.1,0-20.2-9-20.2-20.2c0-11.1,9-20.2,20.2-20.2s20.2,9,20.2,20.2
			C644.3,331.9,635.2,340.9,624.1,340.9z M624.1,302.2c-10.2,0-18.6,8.3-18.6,18.6s8.3,18.6,18.6,18.6s18.6-8.3,18.6-18.6
			S634.3,302.2,624.1,302.2z"/>
		<path class="st1" d="M689.6,340.9c-11.1,0-20.2-9-20.2-20.2c0-11.1,9-20.2,20.2-20.2c11.1,0,20.2,9,20.2,20.2
			C709.7,331.9,700.7,340.9,689.6,340.9z M689.6,302.2c-10.2,0-18.6,8.3-18.6,18.6s8.3,18.6,18.6,18.6c10.2,0,18.6-8.3,18.6-18.6
			S699.8,302.2,689.6,302.2z"/>
		<path class="st1" d="M755.1,340.9c-11.1,0-20.2-9-20.2-20.2c0-11.1,9-20.2,20.2-20.2c11.1,0,20.2,9,20.2,20.2
			C775.2,331.9,766.2,340.9,755.1,340.9z M755.1,302.2c-10.2,0-18.6,8.3-18.6,18.6s8.3,18.6,18.6,18.6c10.2,0,18.6-8.3,18.6-18.6
			S765.3,302.2,755.1,302.2z"/>
	</g>
	<g>
		<g>
			<g>
				<g>
					<defs>
						<circle id="SVGID_2_" cx="1419.7" cy="651.2" r="291.8"/>
					</defs>
					<clipPath id="SVGID_3_">
						<use xlink:href="#SVGID_2_"  style="overflow:visible;"/>
					</clipPath>
					<circle class="st2" cx="1419.7" cy="651.2" r="291.8"/>
					<path class="st3" d="M1444.5,632.7c0,0,93,15,104.4,46.5s25.7,168.8,10,171.6s-67-47.4-67-47.4l17,175.4l-214.5,6.5l12.9-227.4
						l-73.1,63.7l25.1-147.1c0,0,109.5-51.1,135.2-46.8C1420.1,632,1444.5,632.7,1444.5,632.7z"/>
					<g class="st4">
						<polygon class="st5" points="1275.7,582.7 1273.3,620.5 1320.7,628.5 1336.8,594.8 1318.3,581.9 						"/>
						<g>
							<polygon class="st1" points="1335.3,503.4 1370.5,535.8 1305.3,613.2 1267.8,580.1 							"/>
							<polygon class="st6" points="1332.6,512.5 1362,539.5 1307.6,604.1 1276.4,576.5 							"/>
							<path class="st5" d="M1301.2,537.9c0,0-0.2-13.2,7.9-14.6s19-4.8,19.7-2.9s-3.8,8.6-8.6,11c-4.8,2.4-13.4,7.2-13.4,7.2
								s10.3,0.2,9.1,3.8c-1.2,3.6-19.9,8.2-19.9,8.2s15.1,9.4,11.8,12.7c-3.4,3.4-20.6,1-20.6,1s13.2,10.3,9.6,13.9
								c-3.6,3.6-13.9,3.1-19.7-2.9s-6.7-14.2-2.4-15.4c4.3-1.2,1-5.8,4.8-8.9c3.8-3.1,9.6-2.9,9.6-3.8
								C1289,546.3,1285.6,536.5,1301.2,537.9z"/>
						</g>
						<path class="st5" d="M1336.8,594.8l4.7-36.5c0,0-9.6-1.4-11.3,6.8c-1.6,8.2-4.1,24.8-4.1,24.8l3,11.4L1336.8,594.8z"/>
						<path class="st5" d="M1275.3,616.9c0,0-98.8,146.7-75.2,198.4c23.6,51.6,60.4-25.9,70.7-51c10.3-25.1,50-137.5,50-137.5
							l-38.1-15L1275.3,616.9z"/>
					</g>
					<path class="st7" d="M1357.9,540.4c0,0-3.6,56.5-24.3,70.1c0,0,56.5,31.5,105.1,22.2c48.6-9.3,93.7-42.2,93.7-42.2
						s-41.5-72.3-42.5-112c-0.2-6.9-1.9-13.7-5.3-19.7c-8.4-14.8-26.8-37.6-60.3-36.1c-49.3,2.1-48.4,14-48.4,14s-17.2,10-23.6,30
						S1357.9,540.4,1357.9,540.4z"/>
					<path class="st8" d="M1389.4,582.6l-7.2,50.8l-8.6,10.7c0,0,15.7,26.5,40.8,20.7c25-5.7,32.2-20,32.2-20s-13.6-32.2-5.7-55.8
						C1448.7,565.5,1389.4,582.6,1389.4,582.6z"/>
					<path class="st8" d="M1501.4,780.7L1400,759.2l-28.6-26.3l-41.8,4.8c0,0-8.4,8.4,7.2,14.3c15.5,6,29.8,27.4,29.8,27.4
						l113.7,51.3c0,0,81.2,29.5,92,21.1l-8.6-80.9l-62.3-8.9V780.7z"/>
					<path class="st9" d="M1396,581.4l45.3,4.4c0,0-6.8,23.1-21.5,23.1c-14.7,0-29.8-9.5-25.5-27"/>
					<path class="st8" d="M1479.7,529c-48.6-4.6-100.3-58.7-100.3-58.7c-9.3,15.2-19.6,45.7-25.4,50.5c4.3,34.4,30.9,76.3,63.4,76.3
						c30.3,0,55.9-36.4,62.8-69.2C1479.9,528.7,1479.7,529,1479.7,529z"/>
					<path class="st7" d="M1380.1,516.8c0,0,12.3-3.4,22-1.1c1,0.2,1.6-1.1,0.8-1.7c-3.5-2.5-8.7-5.4-14.2-5.3
						C1378.9,508.8,1374.7,514.2,1380.1,516.8z"/>
					<ellipse class="st7" cx="1393.5" cy="529" rx="4.6" ry="7.3"/>
					<path class="st7" d="M1450.2,519.2c0,0-12.3-3.4-22-1.1c-1,0.2-1.6-1.1-0.8-1.7c3.5-2.5,8.7-5.4,14.2-5.3
						C1451.4,511.2,1455.6,516.6,1450.2,519.2z"/>
					<ellipse class="st7" cx="1436.7" cy="531.4" rx="4.6" ry="7.3"/>
					<path class="st7" d="M1409.1,537.3c0,0-18.3,15.1,7.2,21.9C1416.3,559.1,1402.7,552,1409.1,537.3z"/>
					<ellipse class="st9" cx="1437.6" cy="543.7" rx="8.1" ry="2.2"/>
					<ellipse class="st9" cx="1393.2" cy="540.1" rx="8.1" ry="2.2"/>
					<path class="st10" d="M1399.6,568.5c0,0,31.4-8.1,33.5-6.4s-6,16.4-15.9,16.6C1407.4,578.9,1394.1,570.1,1399.6,568.5z"/>
				</g>
				<path class="st11" d="M1419.7,961c-41.8,0-82.4-8.2-120.6-24.3c-36.9-15.6-70-37.9-98.5-66.4c-28.5-28.5-50.8-61.6-66.4-98.5
					c-16.2-38.2-24.3-78.8-24.3-120.6c0-41.8,8.2-82.4,24.3-120.6c15.6-36.9,37.9-70,66.4-98.5c28.5-28.5,61.6-50.8,98.5-66.4
					c38.2-16.2,78.8-24.3,120.6-24.3s82.4,8.2,120.6,24.3c36.9,15.6,70,37.9,98.5,66.4c28.5,28.5,50.8,61.6,66.4,98.5
					c16.2,38.2,24.3,78.8,24.3,120.6s-8.2,82.4-24.3,120.6c-15.6,36.9-37.9,70-66.4,98.5c-28.5,28.5-61.6,50.8-98.5,66.4
					C1502,952.8,1461.5,961,1419.7,961z M1419.7,345.3c-168.7,0-305.9,137.2-305.9,305.9c0,168.7,137.2,305.9,305.9,305.9
					s305.9-137.2,305.9-305.9C1725.6,482.5,1588.3,345.3,1419.7,345.3z"/>
			</g>
			<g>
				<circle class="st12" cx="1182.1" cy="424.5" r="71"/>
				<polygon class="st13" points="1168.6,446.6 1141,417.6 1142.7,416 1168.9,443.4 1221.9,402.4 1223.3,404.3 				"/>
			</g>
		</g>
		<g>
			<circle class="st14" cx="451.3" cy="1632.4" r="38.5"/>
			<circle class="st14" cx="687" cy="1632.4" r="38.5"/>
			
				<rect x="555" y="1380" transform="matrix(-1 -4.488333e-11 4.488333e-11 -1 1158.9767 3009.552)" class="st14" width="49" height="249.6"/>
			
				<rect x="459.1" y="1604.5" transform="matrix(-1 -4.489843e-11 4.489843e-11 -1 1158.9767 3234.1226)" class="st14" width="240.7" height="25.1"/>
			<path class="st15" d="M439.8,964l44.5-31.8l139.2,1.3l124.1,496.5c0,0-92.3,80.3-249.5-23.4C369.2,1321.6,418.1,1056.4,439.8,964
				z"/>
			<path class="st14" d="M660.3,933.6l-175.5-1.7c0,0-108.7,349.4,48.5,453c157.1,103.6,251.1,45.1,251.1,45.1L660.3,933.6z"/>
			<path class="st1" d="M714.3,1215l132.1,140.1c17.6,18.6,15.1,48.4-5.3,63.8l-239.3,181.7l-30.1-43.5L718.8,1380l-137.1-153.8
				L714.3,1215z"/>
			<path class="st16" d="M655.3,1236.2l119.5,139.4c12.9,15,16.6,35.9,9.6,54.5l-85.6,227.4H662l23.4-227.4l-88.5-61.1
				c-32.9-22.7-53.8-58.9-57-98.7l-4.9-60.8L655.3,1236.2z"/>
			<path class="st17" d="M429,1236.2h1091.6c13.5,0,24.5-11,24.5-24.5v0c0-13.5-11-24.5-24.5-24.5H429c-13.5,0-24.5,11-24.5,24.5v0
				C404.5,1225.2,415.5,1236.2,429,1236.2z"/>
			<g>
				<g>
					<path class="st18" d="M974.1,1187.4l75.6,25.9c0.7,0.2,1.3,0.3,2,0.3h79.6c4.9,0,8-5.4,5.3-9.6l-16.2-25.9
						c-1.1-1.8-3.2-2.9-5.3-2.9H976.1C969,1175.2,967.4,1185.1,974.1,1187.4z"/>
					<path class="st16" d="M974.1,1187.4l75.6,25.9c0.7,0.2,1.3,0.3,2,0.3h8c-0.6-2.7-1.1-6.2-3.9-7.1c-3-1-10.1-7.4-10.1-7.4
						l-69.3-24h-0.4C969,1175.2,967.4,1185.1,974.1,1187.4z"/>
				</g>
				<path class="st19" d="M1216.5,1093.3H872.8L920,836.5l313.3,2.8c14.6,0.1,25.6,13.4,23.1,27.8L1216.5,1093.3z"/>
				<path class="st20" d="M872.8,1093.3h367.6l2.8-20.6l15.7-88.9l24.2-137.4c2.5-14.4-8.5-27.6-23.1-27.8l-313.3-2.8
					c0,0-20.1,2-26.6,20.6c0,0,22.6-2.5,19.1,17.6l0.5,0l-1.3,6.9l-38.9,211.7C899.4,1072.7,893.9,1089.8,872.8,1093.3z"/>
				<path class="st16" d="M872.8,1093.3h367.6l2.8-20.6l15.7-88.9c-50.5-7.8-230.5-40.7-320.4-122.8l-38.9,211.7
					C899.4,1072.7,893.9,1089.8,872.8,1093.3z"/>
				<path class="st16" d="M1118,1010.9h-113.1l33.7,190.2c1.4,8,8.4,13.8,16.5,13.8h85.9c10.6,0,18.6-9.8,16.3-20.2L1118,1010.9z"/>
				<path class="st19" d="M1135.1,1010.9H1022l33.7,190.2c1.4,8,8.4,13.8,16.5,13.8h85.9c10.6,0,18.6-9.8,16.3-20.2L1135.1,1010.9z"
					/>
			</g>
			<g>
				<g>
					<path class="st5" d="M857.4,981.3c0,0,4.5-6.3,3-15.2c-1.5-8.9,0.4-28.2,3.3-28.6s4.5,8.2,4.5,13c0,0,15.2-26,15.6-35.3
						c0.4-9.3,6.3-14.1,8.9-7.1s11.5,40.1,2.2,63.2c-9.3,23-28.6,37.1-28.6,37.1l-14.5-8.9L857.4,981.3z"/>
					<polygon class="st5" points="716.3,950.3 687,1005.8 651.9,983.7 671.2,918.6 					"/>
					<path class="st21" d="M755.6,932.6c0,0,43.5-36.8,31.2-70.2c0,0,5.6-51.3-39-55.7c-44.6-4.5-98.1,6.1-98.1,67.7
						s62.4,62.7,62.4,62.7L755.6,932.6z"/>
					<path class="st5" d="M772.6,888.6c0,0-22.6,96.1-70.2,85.3s-51-56-51-56s-25.9-16.7-1.7-43.5c24.2-26.7,20.9,9.2,20.9,9.2
						l18.4-28.4L772.6,888.6z"/>
					<path class="st19" d="M516.5,1190.5h231.5l-2.5-29.3l-35.1-2.5c0,0-4.2-42.6,4.2-59.3l64.9,85.7l96.4-164.6l-23.4-50.2
						c0,0-71.9,122-73,127.4l-43.2-80.3c0,0-19.2-32.6-39.3-28.4l-10,16.7l-32.6-35.1c0,0-70.2-5-81.9,11.7
						C560.8,999.1,501.5,1117.8,516.5,1190.5z"/>
					<path class="st13" d="M640.8,1149.3l47.9,7.8c0,0,18.9-67.4,8.4-168l-10,16.7l-32.6-35.1
						C654.4,970.7,615.2,1091.3,640.8,1149.3z"/>
					<polygon class="st1" points="640.8,1149.3 575,1138.1 606.2,1037.8 592.9,1121.4 					"/>
				</g>
				<path class="st5" d="M748.1,1190.5l-2.5-27c0,0,47.9,5,58,28.1L748.1,1190.5z"/>
			</g>
			<path class="st21" d="M705,900.4c0-0.5,0.3-11.6-5.6-14.4c-3.6-1.7-8.6,0.2-14.9,5.7l1,1.1c5.8-5.1,10.3-6.9,13.3-5.4
				c5,2.4,4.8,12.9,4.8,13L705,900.4z"/>
			<path class="st21" d="M746.1,916.7c0-0.5,0.3-11.6-5.6-14.4c-3.6-1.7-8.6,0.2-14.9,5.7l1,1.1c5.8-5.1,10.3-6.9,13.3-5.4
				c5,2.4,4.8,12.9,4.8,13L746.1,916.7z"/>
			<path class="st21" d="M715,930.5c-5.6,0-12-4.4-12.4-4.7l1.1-1.6c0.1,0.1,11.5,7.9,15.7,2.3c1-1.4,1.3-2.7,1-3.9
				c-0.7-2.7-4.3-4.7-5.6-5.3l-0.7-0.3l1.6-9.5l2,0.3l-1.4,8c1.6,0.8,5.2,3,6,6.3c0.5,1.9,0.1,3.8-1.3,5.7
				C719.5,929.8,717.3,930.5,715,930.5z"/>
			<ellipse class="st21" cx="701.2" cy="944.4" rx="9.5" ry="4.3"/>
			<g>
				<path class="st20" d="M625.7,882.3c0,8.7,4.3,16.3,10.9,20.9c4.2,3,9.3,4.7,14.8,4.7c14.2,0,25.6-11.5,25.6-25.6
					c0-4.4-1.1-8.5-3-12.1c-4.3-8-12.8-13.5-22.6-13.5C637.2,856.7,625.7,868.2,625.7,882.3z"/>
				<circle class="st16" cx="651.4" cy="882.3" r="16.5"/>
				<path class="st20" d="M648.6,858.4c0,0,18-67.1,89.9-52.6c0,0-67.1,6.3-79.3,54.2L648.6,858.4z"/>
				<path class="st16" d="M636.6,903.3c4.2,3,9.3,4.7,14.8,4.7c14.2,0,25.6-11.5,25.6-25.6c0-4.4-1.1-8.5-3-12.1
					c0.4,2.4,4.8,35.8-30.1,34.4L636.6,903.3z"/>
				<path class="st20" d="M693.8,947.1l0.9-4.3c-30.9-6.3-39.8-41.9-39.9-42.2l-4.2,1C650.9,903.2,660.2,940.2,693.8,947.1z"/>
				<path class="st16" d="M686.6,950l5.9,2.2c3.4,1.3,7.1-0.5,8.4-3.8v0c1.3-3.4-0.5-7.1-3.8-8.4l-5.9-2.2c-3.4-1.3-7.1,0.5-8.4,3.8
					l0,0C681.5,945,683.2,948.7,686.6,950z"/>
			</g>
			<polygon class="st1" points="670,1023.9 684.5,1010.8 694,1025.8 688.2,1024.4 679.8,1155.4 658.3,1152.3 679,1023 			"/>
			<path class="st21" d="M710.8,886.4c0,0-8.7-9.1-14.9-8.4c-6.1,0.7-9.5,2-9.5,2s8.7-8.2,13.9-7.4c5.2,0.7,14.5,9.5,14.5,9.5
				S715.1,886.2,710.8,886.4z"/>
			<path class="st21" d="M734.3,893.7c0,0,12.4,2.2,15.2,7.8c2.8,5.5,3.5,9,3.5,9s2-11.8-1.5-15.7c-3.5-3.9-15.9-6.8-15.9-6.8
				S732.1,890,734.3,893.7z"/>
			
				<ellipse transform="matrix(0.4375 -0.8992 0.8992 0.4375 -422.6524 1128.0919)" class="st22" cx="690.4" cy="901.9" rx="3" ry="9.5"/>
			
				<ellipse transform="matrix(0.4375 -0.8992 0.8992 0.4375 -414.2854 1177.4102)" class="st22" cx="734" cy="919.9" rx="3" ry="9.5"/>
			<path class="st23" d="M698.7,1657.5c0,0,70.2,20.1,68.5,35.1s-112,1.7-112,1.7l6.7-36.8H698.7z"/>
			<path class="st23" d="M601.8,1600.6c0,0,25.1,50.2,20.1,65.2c-5,15-85.3-80.2-85.3-80.2l35.1-28.4L601.8,1600.6z"/>
			<polygon class="st17" points="1390.5,1764.5 1243.1,1223.6 1273.3,1215.4 1423,1764.5 			"/>
			<polygon class="st17" points="426.3,1761.1 573.7,1220.2 543.5,1212 393.9,1761.1 			"/>
		</g>
		<g>
			<polygon class="st20" points="642.3,410.3 413.5,410.3 413.5,549.7 570.2,549.7 594.4,606.9 613.5,549.7 642.3,549.7 			"/>
			<rect x="437.1" y="435.2" class="st17" width="181.6" height="8.7"/>
			<rect x="437.1" y="461.3" class="st17" width="181.6" height="8.7"/>
			<rect x="437.1" y="487.5" class="st17" width="181.6" height="8.7"/>
			<rect x="437.1" y="513.6" class="st17" width="181.6" height="8.7"/>
		</g>
		<g>
			<polygon class="st12" points="675.5,533.9 895.3,533.9 895.3,667.8 744.8,667.8 721.5,722.7 703.1,667.8 675.5,667.8 			"/>
			
				<rect x="698.2" y="557.8" transform="matrix(-1 -4.489976e-11 4.489976e-11 -1 1570.7838 1124.0219)" class="st13" width="174.4" height="8.4"/>
			
				<rect x="698.2" y="582.9" transform="matrix(-1 -4.489976e-11 4.489976e-11 -1 1570.7838 1174.2048)" class="st13" width="174.4" height="8.4"/>
			
				<rect x="698.2" y="608" transform="matrix(-1 -4.489976e-11 4.489976e-11 -1 1570.7838 1224.3878)" class="st13" width="174.4" height="8.4"/>
			
				<rect x="698.2" y="633.1" transform="matrix(-1 -4.489976e-11 4.489976e-11 -1 1570.7838 1274.5708)" class="st13" width="174.4" height="8.4"/>
		</g>
		<g>
			<g>
				<path class="st24" d="M1579.6,961.4c0,0-0.3,0.3-0.7,0.8c-2.7,2.8-12,12.7-15,16.2c-3.5,4.1-12.3,6.4-32.1,18.1
					c-19.9,11.7-15.2,11.7-19.9,18.7c-4.7,7-10.5,11.1-30.4,18.1c-19.9,7-32.7,7.6-32.7,7.6l-11.1,32.7l-1.8,0.6l-1.7,0.6l3.7-15.8
					l3.5-15.2c0,0,0,0,0,0l1.6-6.8c0,0,1.7-15.2,11.7-20.4c9.9-5.2,9.9-4.7,18.7-9.3c8.8-4.7,9.9-7.6,21.6-16.9
					c11.7-9.3,10.5-6.4,30.4-11.7C1545.1,973.1,1579.6,961.4,1579.6,961.4z"/>
				<path class="st24" d="M1419,1078.8l-0.4,0.4l-1,1l-6.3-21.2c0,0-6.9-0.6-11.5-1.2c-4.7-0.6-9.3-1.2-12.8-2.9
					c-3.5-1.8-7.6-3.5-9.9-4.1c-2.3-0.6-9.9-1.2-19.3-5.8c-9.3-4.7-3.5-3.5-8.2-7.6c-4.7-4.1-3.5-4.1-5.3-5.3
					c-1.7-1.2-5.8-2.3-7.6-3.5c-1.8-1.2-10.5-3.5-16.4-8.2c-5.8-4.7-5.3-14-9.9-21c-4.7-7-7.6-7-11.7-13.4
					c-4.1-6.4-7.6-16.4-7.6-16.4s15.2,11.1,18.7,14c3.5,2.9,14,6.4,16.9,9.3c2.9,2.9,28.6,14.6,33.9,16.9
					c5.3,2.3,46.7,29.2,49.6,31.5C1413.2,1043.7,1419,1078.8,1419,1078.8z"/>
				<path class="st24" d="M1428.3,1078.2l-2.9,2.9l-7.6-49.1c0,0-6.4-10.5-8.2-12.3c-1.8-1.7-2.9-2.9-7.6-7.6
					c-4.7-4.7-4.1-8.2-6.4-13.4c-2.3-5.3-4.7-8.8-7.6-35.6c-2.9-26.9-4.1-13.4-8.8-27.4c-4.7-14,1.7-18.7,0.6-32.1
					c-1.1-13,6-26.1,6.4-26.8c0,0,0,0,0,0s0,8.8,2.9,18.7c2.9,9.9,3.5,6.4,5.3,17.5c1.7,11.1,0.6,8.2,1.2,18.1
					c0.6,9.9,3.5,6.4,7.6,15.8c4.1,9.3,2.3,8.2,2.3,19.9s4.7,16.4,13.4,33.9c8.8,17.5,6.4,17.5,6.4,24.5
					C1425.4,1032,1428.3,1078.2,1428.3,1078.2z"/>
				<path class="st24" d="M1496.1,872c-5.3,8.8-6.4,14.6-14,30.9c-7.6,16.4,0,16.4-0.6,29.8c-0.6,13.4,0,15.8-5.8,26.3
					c-5.8,10.5-8.2,16.9-15.2,31c-7,14-15.2,18.7-15.2,31.5c0,12.8-5.2,11.7-9.3,20.4c-3.7,7.9-4.5,35.2-4.6,40.6c0,0.6,0,0.9,0,0.9
					c-6.4-13.4,0.6-40.9,0.6-40.9s4.1-18.1,3.5-21c-0.6-2.9-0.6-9.9-1.2-14c-0.6-4.1,2.3-19.9,2.3-29.2s0-9.3,2.3-20.4
					c2.3-11.1,6.4-9.9,10.5-21.6c4.1-11.7,4.7-11.7,10.5-22.8c5.2-9.9,34.4-42.4,36.6-42.7C1496.7,870.7,1496.6,871.1,1496.1,872z"
					/>
				<path class="st16" d="M1578.8,962.1c-2.7,2.8-12,12.7-15,16.2c-3.5,4.1-12.3,6.4-32.1,18.1c-19.9,11.7-15.2,11.7-19.9,18.7
					c-4.7,7-10.5,11.1-30.4,18.1c-19.9,7-32.7,7.6-32.7,7.6l-11.1,32.7l-1.8,0.6c0,0,0.5-6.9,1.9-15.3c0.8-5,2-10.4,3.5-15.2
					c0,0,0,0,0,0c1.7-5.4,4-10,6.8-12.1c9.6-7,20.1-9.9,33.3-17.5c13.1-7.6,14.3-13.4,25.1-17.8c10.8-4.4,16.6-2.3,23.4-6.1
					c6.7-3.8,38.2-20.4,41.8-22.8C1573.5,966,1576.4,963.9,1578.8,962.1z"/>
				<path class="st16" d="M1496.1,872c-5.3,8.8-6.4,14.6-14,30.9c-7.6,16.4,0,16.4-0.6,29.8c-0.6,13.4,0,15.8-5.8,26.3
					c-5.8,10.5-8.2,16.9-15.2,31c-7,14-15.2,18.7-15.2,31.5c0,12.8-5.2,11.7-9.3,20.4c-3.7,7.9-4.5,35.2-4.6,40.6
					c-0.1,0-0.2,0-0.2,0s-2.6-27.2,2-38.3c4.6-11.2,7.9-19.1,8.3-25.4c0.4-6.3-3.9-15.8,3.3-31.7c7.2-16,8.3-19.7,9.2-21.5
					c0.9-1.7,3.1-17.3,7.7-31.3c4.6-14,5-18.8,5.7-19.7c0.7-0.9,13.8-21,15.1-23.2c1.2-2,12-17.5,14.1-20.5
					C1496.7,870.7,1496.6,871.1,1496.1,872z"/>
				<path class="st16" d="M1428.3,1078.2l-1,1c-1.2-9-3.6-26.6-3.6-27.6c0-1.3-4.4-30.2-5.3-32c-0.9-1.7-1.3-10.9-5.2-18.4
					c-3.9-7.5-6.6-11.4-9.6-17.1c-3.1-5.7-3.9-6.1-7.4-13.6c-3.5-7.4,0.4-6.1,0.4-9.2c0-3.1-0.4-9.6-3.1-15.8
					c-2.6-6.1-2.2-4.8-3.9-12.7c-1.7-7.9-0.9-10.1-5.3-24.5c-4.3-14.1,1.7-30.8,2-31.6c0,0,0,0,0,0s0,8.8,2.9,18.7
					c2.9,9.9,3.5,6.4,5.3,17.5c1.7,11.1,0.6,8.2,1.2,18.1c0.6,9.9,3.5,6.4,7.6,15.8c4.1,9.3,2.3,8.2,2.3,19.9s4.7,16.4,13.4,33.9
					c8.8,17.5,6.4,17.5,6.4,24.5C1425.4,1032,1428.3,1078.2,1428.3,1078.2z"/>
				<path class="st16" d="M1419,1078.8l-0.4,0.4l-6.1-24c0,0-5-4.7-9.1-7.6c-4.1-2.9-5-2-9.9-4.4c-5-2.3-5.2-1.2-14.6-3.5
					c-9.3-2.3-17.2-12.6-21-15.2c-3.8-2.6-6.1-4.1-8.5-5.8c-2.3-1.7-7.3-2.9-14.9-4.7s-8.2-6.1-10.8-9.3c-2.6-3.2-3.8-8.5-13.7-14.9
					s-19-20.2-19-20.2s15.2,11.1,18.7,14c3.5,2.9,14,6.4,16.9,9.3c2.9,2.9,28.6,14.6,33.9,16.9c5.3,2.3,46.7,29.2,49.6,31.5
					C1413.2,1043.7,1419,1078.8,1419,1078.8z"/>
			</g>
			<g>
				<polygon class="st14" points="1504.2,1053.5 1504.1,1054.2 1481,1188 1382.9,1188 1382.3,1184.9 1357.5,1053.5 				"/>
				<polygon class="st15" points="1504.1,1053.6 1481,1188 1382.9,1188 1382.3,1184.9 1489.1,1053.5 				"/>
			</g>
		</g>
	</g>
	<g>
		<g>
			<polygon class="st20" points="1788.5,611.6 1640.2,611.6 1640.2,701.9 1741.8,701.9 1757.5,739 1769.8,701.9 1788.5,701.9 			"/>
		</g>
		<g>
			<circle class="st16" cx="1676.1" cy="654.6" r="8.9"/>
			<circle class="st16" cx="1714.3" cy="654.6" r="8.9"/>
			<circle class="st16" cx="1752.6" cy="654.6" r="8.9"/>
		</g>
	</g>
</g>
</svg>
