<?xml version="1.0" encoding="UTF-8"?>
<svg xmlns="http://www.w3.org/2000/svg" xmlns:xlink="http://www.w3.org/1999/xlink" width="785px" height="785px" viewBox="0 0 785 785" version="1.1">
<defs>
<clipPath id="clip1">
  <path d="M 432 137 L 657 137 L 657 362 L 432 362 Z M 432 137 "/>
</clipPath>
<clipPath id="clip2">
  <path d="M 656.019531 249.605469 C 656.019531 311.378906 605.945312 361.453125 544.171875 361.453125 C 482.402344 361.453125 432.324219 311.378906 432.324219 249.605469 C 432.324219 187.832031 482.402344 137.757812 544.171875 137.757812 C 605.945312 137.757812 656.019531 187.832031 656.019531 249.605469 Z M 656.019531 249.605469 "/>
</clipPath>
<clipPath id="clip3">
  <path d="M 473 240 L 601 240 L 601 362 L 473 362 Z M 473 240 "/>
</clipPath>
<clipPath id="clip4">
  <path d="M 656.019531 249.605469 C 656.019531 311.378906 605.945312 361.453125 544.171875 361.453125 C 482.402344 361.453125 432.324219 311.378906 432.324219 249.605469 C 432.324219 187.832031 482.402344 137.757812 544.171875 137.757812 C 605.945312 137.757812 656.019531 187.832031 656.019531 249.605469 Z M 656.019531 249.605469 "/>
</clipPath>
<clipPath id="clip5">
  <path d="M 488 223 L 513 223 L 513 241 L 488 241 Z M 488 223 "/>
</clipPath>
<clipPath id="clip6">
  <path d="M 656.019531 249.605469 C 656.019531 311.378906 605.945312 361.453125 544.171875 361.453125 C 482.402344 361.453125 432.324219 311.378906 432.324219 249.605469 C 432.324219 187.832031 482.402344 137.757812 544.171875 137.757812 C 605.945312 137.757812 656.019531 187.832031 656.019531 249.605469 Z M 656.019531 249.605469 "/>
</clipPath>
<clipPath id="clip7">
  <path d="M 485 192 L 526 192 L 526 236 L 485 236 Z M 485 192 "/>
</clipPath>
<clipPath id="clip8">
  <path d="M 656.019531 249.605469 C 656.019531 311.378906 605.945312 361.453125 544.171875 361.453125 C 482.402344 361.453125 432.324219 311.378906 432.324219 249.605469 C 432.324219 187.832031 482.402344 137.757812 544.171875 137.757812 C 605.945312 137.757812 656.019531 187.832031 656.019531 249.605469 Z M 656.019531 249.605469 "/>
</clipPath>
<clipPath id="clip9">
  <path d="M 489 196 L 523 196 L 523 232 L 489 232 Z M 489 196 "/>
</clipPath>
<clipPath id="clip10">
  <path d="M 656.019531 249.605469 C 656.019531 311.378906 605.945312 361.453125 544.171875 361.453125 C 482.402344 361.453125 432.324219 311.378906 432.324219 249.605469 C 432.324219 187.832031 482.402344 137.757812 544.171875 137.757812 C 605.945312 137.757812 656.019531 187.832031 656.019531 249.605469 Z M 656.019531 249.605469 "/>
</clipPath>
<clipPath id="clip11">
  <path d="M 487 199 L 510 199 L 510 223 L 487 223 Z M 487 199 "/>
</clipPath>
<clipPath id="clip12">
  <path d="M 656.019531 249.605469 C 656.019531 311.378906 605.945312 361.453125 544.171875 361.453125 C 482.402344 361.453125 432.324219 311.378906 432.324219 249.605469 C 432.324219 187.832031 482.402344 137.757812 544.171875 137.757812 C 605.945312 137.757812 656.019531 187.832031 656.019531 249.605469 Z M 656.019531 249.605469 "/>
</clipPath>
<clipPath id="clip13">
  <path d="M 508 213 L 515 213 L 515 231 L 508 231 Z M 508 213 "/>
</clipPath>
<clipPath id="clip14">
  <path d="M 656.019531 249.605469 C 656.019531 311.378906 605.945312 361.453125 544.171875 361.453125 C 482.402344 361.453125 432.324219 311.378906 432.324219 249.605469 C 432.324219 187.832031 482.402344 137.757812 544.171875 137.757812 C 605.945312 137.757812 656.019531 187.832031 656.019531 249.605469 Z M 656.019531 249.605469 "/>
</clipPath>
<clipPath id="clip15">
  <path d="M 458 234 L 507 234 L 507 320 L 458 320 Z M 458 234 "/>
</clipPath>
<clipPath id="clip16">
  <path d="M 656.019531 249.605469 C 656.019531 311.378906 605.945312 361.453125 544.171875 361.453125 C 482.402344 361.453125 432.324219 311.378906 432.324219 249.605469 C 432.324219 187.832031 482.402344 137.757812 544.171875 137.757812 C 605.945312 137.757812 656.019531 187.832031 656.019531 249.605469 Z M 656.019531 249.605469 "/>
</clipPath>
<clipPath id="clip17">
  <path d="M 511 161 L 588 161 L 588 244 L 511 244 Z M 511 161 "/>
</clipPath>
<clipPath id="clip18">
  <path d="M 656.019531 249.605469 C 656.019531 311.378906 605.945312 361.453125 544.171875 361.453125 C 482.402344 361.453125 432.324219 311.378906 432.324219 249.605469 C 432.324219 187.832031 482.402344 137.757812 544.171875 137.757812 C 605.945312 137.757812 656.019531 187.832031 656.019531 249.605469 Z M 656.019531 249.605469 "/>
</clipPath>
<clipPath id="clip19">
  <path d="M 526 221 L 555 221 L 555 256 L 526 256 Z M 526 221 "/>
</clipPath>
<clipPath id="clip20">
  <path d="M 656.019531 249.605469 C 656.019531 311.378906 605.945312 361.453125 544.171875 361.453125 C 482.402344 361.453125 432.324219 311.378906 432.324219 249.605469 C 432.324219 187.832031 482.402344 137.757812 544.171875 137.757812 C 605.945312 137.757812 656.019531 187.832031 656.019531 249.605469 Z M 656.019531 249.605469 "/>
</clipPath>
<clipPath id="clip21">
  <path d="M 508 280 L 603 280 L 603 328 L 508 328 Z M 508 280 "/>
</clipPath>
<clipPath id="clip22">
  <path d="M 656.019531 249.605469 C 656.019531 311.378906 605.945312 361.453125 544.171875 361.453125 C 482.402344 361.453125 432.324219 311.378906 432.324219 249.605469 C 432.324219 187.832031 482.402344 137.757812 544.171875 137.757812 C 605.945312 137.757812 656.019531 187.832031 656.019531 249.605469 Z M 656.019531 249.605469 "/>
</clipPath>
<clipPath id="clip23">
  <path d="M 534 222 L 553 222 L 553 234 L 534 234 Z M 534 222 "/>
</clipPath>
<clipPath id="clip24">
  <path d="M 656.019531 249.605469 C 656.019531 311.378906 605.945312 361.453125 544.171875 361.453125 C 482.402344 361.453125 432.324219 311.378906 432.324219 249.605469 C 432.324219 187.832031 482.402344 137.757812 544.171875 137.757812 C 605.945312 137.757812 656.019531 187.832031 656.019531 249.605469 Z M 656.019531 249.605469 "/>
</clipPath>
<clipPath id="clip25">
  <path d="M 518 180 L 568 180 L 568 229 L 518 229 Z M 518 180 "/>
</clipPath>
<clipPath id="clip26">
  <path d="M 656.019531 249.605469 C 656.019531 311.378906 605.945312 361.453125 544.171875 361.453125 C 482.402344 361.453125 432.324219 311.378906 432.324219 249.605469 C 432.324219 187.832031 482.402344 137.757812 544.171875 137.757812 C 605.945312 137.757812 656.019531 187.832031 656.019531 249.605469 Z M 656.019531 249.605469 "/>
</clipPath>
<clipPath id="clip27">
  <path d="M 528 194 L 538 194 L 538 199 L 528 199 Z M 528 194 "/>
</clipPath>
<clipPath id="clip28">
  <path d="M 656.019531 249.605469 C 656.019531 311.378906 605.945312 361.453125 544.171875 361.453125 C 482.402344 361.453125 432.324219 311.378906 432.324219 249.605469 C 432.324219 187.832031 482.402344 137.757812 544.171875 137.757812 C 605.945312 137.757812 656.019531 187.832031 656.019531 249.605469 Z M 656.019531 249.605469 "/>
</clipPath>
<clipPath id="clip29">
  <path d="M 532 199 L 536 199 L 536 206 L 532 206 Z M 532 199 "/>
</clipPath>
<clipPath id="clip30">
  <path d="M 656.019531 249.605469 C 656.019531 311.378906 605.945312 361.453125 544.171875 361.453125 C 482.402344 361.453125 432.324219 311.378906 432.324219 249.605469 C 432.324219 187.832031 482.402344 137.757812 544.171875 137.757812 C 605.945312 137.757812 656.019531 187.832031 656.019531 249.605469 Z M 656.019531 249.605469 "/>
</clipPath>
<clipPath id="clip31">
  <path d="M 546 195 L 557 195 L 557 200 L 546 200 Z M 546 195 "/>
</clipPath>
<clipPath id="clip32">
  <path d="M 656.019531 249.605469 C 656.019531 311.378906 605.945312 361.453125 544.171875 361.453125 C 482.402344 361.453125 432.324219 311.378906 432.324219 249.605469 C 432.324219 187.832031 482.402344 137.757812 544.171875 137.757812 C 605.945312 137.757812 656.019531 187.832031 656.019531 249.605469 Z M 656.019531 249.605469 "/>
</clipPath>
<clipPath id="clip33">
  <path d="M 548 200 L 553 200 L 553 207 L 548 207 Z M 548 200 "/>
</clipPath>
<clipPath id="clip34">
  <path d="M 656.019531 249.605469 C 656.019531 311.378906 605.945312 361.453125 544.171875 361.453125 C 482.402344 361.453125 432.324219 311.378906 432.324219 249.605469 C 432.324219 187.832031 482.402344 137.757812 544.171875 137.757812 C 605.945312 137.757812 656.019531 187.832031 656.019531 249.605469 Z M 656.019531 249.605469 "/>
</clipPath>
<clipPath id="clip35">
  <path d="M 537 205 L 543 205 L 543 215 L 537 215 Z M 537 205 "/>
</clipPath>
<clipPath id="clip36">
  <path d="M 656.019531 249.605469 C 656.019531 311.378906 605.945312 361.453125 544.171875 361.453125 C 482.402344 361.453125 432.324219 311.378906 432.324219 249.605469 C 432.324219 187.832031 482.402344 137.757812 544.171875 137.757812 C 605.945312 137.757812 656.019531 187.832031 656.019531 249.605469 Z M 656.019531 249.605469 "/>
</clipPath>
<clipPath id="clip37">
  <path d="M 547 207 L 555 207 L 555 210 L 547 210 Z M 547 207 "/>
</clipPath>
<clipPath id="clip38">
  <path d="M 656.019531 249.605469 C 656.019531 311.378906 605.945312 361.453125 544.171875 361.453125 C 482.402344 361.453125 432.324219 311.378906 432.324219 249.605469 C 432.324219 187.832031 482.402344 137.757812 544.171875 137.757812 C 605.945312 137.757812 656.019531 187.832031 656.019531 249.605469 Z M 656.019531 249.605469 "/>
</clipPath>
<clipPath id="clip39">
  <path d="M 530 206 L 538 206 L 538 208 L 530 208 Z M 530 206 "/>
</clipPath>
<clipPath id="clip40">
  <path d="M 656.019531 249.605469 C 656.019531 311.378906 605.945312 361.453125 544.171875 361.453125 C 482.402344 361.453125 432.324219 311.378906 432.324219 249.605469 C 432.324219 187.832031 482.402344 137.757812 544.171875 137.757812 C 605.945312 137.757812 656.019531 187.832031 656.019531 249.605469 Z M 656.019531 249.605469 "/>
</clipPath>
<clipPath id="clip41">
  <path d="M 535 215 L 550 215 L 550 222 L 535 222 Z M 535 215 "/>
</clipPath>
<clipPath id="clip42">
  <path d="M 656.019531 249.605469 C 656.019531 311.378906 605.945312 361.453125 544.171875 361.453125 C 482.402344 361.453125 432.324219 311.378906 432.324219 249.605469 C 432.324219 187.832031 482.402344 137.757812 544.171875 137.757812 C 605.945312 137.757812 656.019531 187.832031 656.019531 249.605469 Z M 656.019531 249.605469 "/>
</clipPath>
</defs>
<g id="surface1">
<path style=" stroke:none;fill-rule:nonzero;fill:rgb(93.333333%,92.941176%,93.333333%);fill-opacity:1;" d="M 678.632812 443.171875 C 671.234375 463.640625 650.804688 483.992188 624.855469 502.8125 C 554.445312 553.90625 443.480469 593.769531 441.871094 594.191406 C 441.871094 594.191406 318.945312 630.914062 222.890625 578.632812 C 126.796875 526.347656 90.074219 304.53125 123.996094 252.25 C 124.648438 251.253906 125.339844 250.257812 126.105469 249.300781 C 131.164062 242.859375 138.449219 237.609375 147.378906 233.390625 C 205.792969 205.871094 335.195312 223.808594 383.261719 255.085938 C 439.761719 291.808594 508.296875 287.589844 648.160156 378.703125 C 679.476562 399.167969 686.570312 421.210938 678.632812 443.171875 Z M 678.632812 443.171875 "/>
<path style=" stroke:none;fill-rule:nonzero;fill:rgb(93.333333%,92.941176%,93.333333%);fill-opacity:1;" d="M 591.203125 684.039062 L 174.632812 684.039062 C 163.4375 684.039062 154.355469 674.953125 154.355469 663.761719 L 154.355469 649.65625 C 154.355469 638.464844 163.4375 629.378906 174.632812 629.378906 L 591.242188 629.378906 C 602.433594 629.378906 611.519531 638.464844 611.519531 649.65625 L 611.519531 663.761719 C 611.480469 674.953125 602.394531 684.039062 591.203125 684.039062 Z M 591.203125 684.039062 "/>
<path style=" stroke:none;fill-rule:nonzero;fill:rgb(93.333333%,92.941176%,93.333333%);fill-opacity:1;" d="M 450.570312 655.558594 C 450.570312 634.8125 371.972656 617.996094 275.019531 617.996094 C 178.0625 617.996094 99.464844 634.8125 99.464844 655.558594 C 99.464844 676.304688 178.0625 693.121094 275.019531 693.121094 C 371.972656 693.121094 450.570312 676.304688 450.570312 655.558594 Z M 450.570312 655.558594 "/>
<path style=" stroke:none;fill-rule:nonzero;fill:rgb(93.333333%,92.941176%,93.333333%);fill-opacity:1;" d="M 499.671875 114.300781 C 459.808594 94.367188 414.617188 87.46875 370.765625 95.367188 C 341.253906 100.691406 312.773438 112.613281 311.660156 138.714844 C 309.285156 193.644531 373.027344 217.675781 418.488281 223.617188 C 463.945312 229.519531 517.226562 241.976562 537.734375 255.203125 C 555.59375 266.777344 616.308594 172.601562 499.671875 114.300781 Z M 499.671875 114.300781 "/>
<path style=" stroke:none;fill-rule:nonzero;fill:rgb(7.45098%,26.666667%,54.901961%);fill-opacity:1;" d="M 629.496094 410.667969 L 219.402344 410.667969 C 202.460938 410.667969 188.699219 396.90625 188.699219 379.964844 L 188.699219 122.578125 C 188.699219 105.636719 202.460938 91.878906 219.402344 91.878906 L 629.496094 91.878906 C 646.4375 91.878906 660.195312 105.636719 660.195312 122.578125 L 660.195312 379.929688 C 660.195312 396.871094 646.4375 410.667969 629.496094 410.667969 Z M 219.402344 92.492188 C 202.804688 92.492188 189.3125 105.984375 189.3125 122.578125 L 189.3125 379.929688 C 189.3125 396.523438 202.804688 410.015625 219.402344 410.015625 L 629.496094 410.015625 C 646.09375 410.015625 659.585938 396.523438 659.585938 379.929688 L 659.585938 122.578125 C 659.585938 105.984375 646.09375 92.492188 629.496094 92.492188 Z M 219.402344 92.492188 "/>
<path style=" stroke:none;fill-rule:nonzero;fill:rgb(7.45098%,26.666667%,54.901961%);fill-opacity:1;" d="M 189.003906 150.90625 L 659.890625 150.90625 L 659.890625 151.519531 L 189.003906 151.519531 Z M 189.003906 150.90625 "/>
<path style=" stroke:none;fill-rule:nonzero;fill:rgb(7.45098%,26.666667%,54.901961%);fill-opacity:1;" d="M 239.21875 130.667969 C 234.964844 130.667969 231.476562 127.21875 231.476562 122.925781 C 231.476562 118.667969 234.925781 115.183594 239.21875 115.183594 C 243.511719 115.183594 246.960938 118.632812 246.960938 122.925781 C 246.960938 127.21875 243.472656 130.667969 239.21875 130.667969 Z M 239.21875 115.832031 C 235.308594 115.832031 232.089844 119.015625 232.089844 122.960938 C 232.089844 126.910156 235.269531 130.09375 239.21875 130.09375 C 243.167969 130.09375 246.347656 126.910156 246.347656 122.960938 C 246.347656 119.015625 243.128906 115.832031 239.21875 115.832031 Z M 239.21875 115.832031 "/>
<path style=" stroke:none;fill-rule:nonzero;fill:rgb(7.45098%,26.666667%,54.901961%);fill-opacity:1;" d="M 264.324219 130.667969 C 260.070312 130.667969 256.582031 127.21875 256.582031 122.925781 C 256.582031 118.667969 260.03125 115.183594 264.324219 115.183594 C 268.578125 115.183594 272.066406 118.632812 272.066406 122.925781 C 272.027344 127.21875 268.578125 130.667969 264.324219 130.667969 Z M 264.324219 115.832031 C 260.414062 115.832031 257.195312 119.015625 257.195312 122.960938 C 257.195312 126.910156 260.375 130.09375 264.324219 130.09375 C 268.234375 130.09375 271.453125 126.910156 271.453125 122.960938 C 271.453125 119.015625 268.234375 115.832031 264.324219 115.832031 Z M 264.324219 115.832031 "/>
<path style=" stroke:none;fill-rule:nonzero;fill:rgb(7.45098%,26.666667%,54.901961%);fill-opacity:1;" d="M 289.429688 130.667969 C 285.175781 130.667969 281.6875 127.21875 281.6875 122.925781 C 281.6875 118.667969 285.136719 115.183594 289.429688 115.183594 C 293.683594 115.183594 297.171875 118.632812 297.171875 122.925781 C 297.132812 127.21875 293.683594 130.667969 289.429688 130.667969 Z M 289.429688 115.832031 C 285.519531 115.832031 282.300781 119.015625 282.300781 122.960938 C 282.300781 126.910156 285.484375 130.09375 289.429688 130.09375 C 293.339844 130.09375 296.558594 126.910156 296.558594 122.960938 C 296.558594 119.015625 293.339844 115.832031 289.429688 115.832031 Z M 289.429688 115.832031 "/>
<g clip-path="url(#clip1)" clip-rule="nonzero">
<g clip-path="url(#clip2)" clip-rule="nonzero">
<path style=" stroke:none;fill-rule:nonzero;fill:rgb(85.882353%,87.843137%,89.411765%);fill-opacity:1;" d="M 656.019531 249.605469 C 656.019531 311.378906 605.945312 361.453125 544.171875 361.453125 C 482.402344 361.453125 432.324219 311.378906 432.324219 249.605469 C 432.324219 187.832031 482.402344 137.757812 544.171875 137.757812 C 605.945312 137.757812 656.019531 187.832031 656.019531 249.605469 Z M 656.019531 249.605469 "/>
</g>
</g>
<g clip-path="url(#clip3)" clip-rule="nonzero">
<g clip-path="url(#clip4)" clip-rule="nonzero">
<path style=" stroke:none;fill-rule:nonzero;fill:rgb(97.647059%,34.509804%,34.509804%);fill-opacity:1;" d="M 553.679688 242.515625 C 553.679688 242.515625 589.324219 248.265625 593.695312 260.335938 C 598.0625 272.410156 603.546875 325.039062 597.527344 326.113281 C 591.507812 327.1875 571.847656 307.945312 571.847656 307.945312 L 578.363281 375.175781 L 496.144531 377.667969 L 501.089844 290.503906 L 473.070312 314.921875 L 482.691406 258.535156 C 482.691406 258.535156 524.664062 238.949219 534.511719 240.597656 C 544.324219 242.246094 553.679688 242.515625 553.679688 242.515625 Z M 553.679688 242.515625 "/>
</g>
</g>
<g clip-path="url(#clip5)" clip-rule="nonzero">
<g clip-path="url(#clip6)" clip-rule="nonzero">
<path style=" stroke:none;fill-rule:nonzero;fill:rgb(100%,69.411765%,61.960784%);fill-opacity:1;" d="M 488.976562 223.347656 L 488.058594 237.839844 L 506.226562 240.90625 L 512.398438 227.988281 L 505.304688 223.042969 Z M 488.976562 223.347656 "/>
</g>
</g>
<g clip-path="url(#clip7)" clip-rule="nonzero">
<g clip-path="url(#clip8)" clip-rule="nonzero">
<path style=" stroke:none;fill-rule:nonzero;fill:rgb(7.45098%,26.666667%,54.901961%);fill-opacity:1;" d="M 511.820312 192.953125 L 525.3125 205.371094 L 500.324219 235.039062 L 485.949219 222.351562 Z M 511.820312 192.953125 "/>
</g>
</g>
<g clip-path="url(#clip9)" clip-rule="nonzero">
<g clip-path="url(#clip10)" clip-rule="nonzero">
<path style=" stroke:none;fill-rule:nonzero;fill:rgb(7.843137%,9.019608%,12.54902%);fill-opacity:1;" d="M 510.785156 196.441406 L 522.054688 206.789062 L 501.203125 231.550781 L 489.246094 220.972656 Z M 510.785156 196.441406 "/>
</g>
</g>
<g clip-path="url(#clip11)" clip-rule="nonzero">
<g clip-path="url(#clip12)" clip-rule="nonzero">
<path style=" stroke:none;fill-rule:nonzero;fill:rgb(100%,69.411765%,61.960784%);fill-opacity:1;" d="M 498.75 206.175781 C 498.75 206.175781 498.675781 201.117188 501.777344 200.582031 C 504.882812 200.042969 509.0625 198.742188 509.332031 199.46875 C 509.597656 200.199219 507.875 202.765625 506.035156 203.6875 C 504.195312 204.605469 500.898438 206.445312 500.898438 206.445312 C 500.898438 206.445312 504.84375 206.523438 504.386719 207.902344 C 503.925781 209.28125 496.757812 211.046875 496.757812 211.046875 C 496.757812 211.046875 502.546875 214.648438 501.28125 215.914062 C 499.976562 217.214844 493.382812 216.296875 493.382812 216.296875 C 493.382812 216.296875 498.445312 220.246094 497.0625 221.625 C 495.683594 223.003906 491.738281 222.8125 489.511719 220.511719 C 487.289062 218.214844 486.945312 215.070312 488.59375 214.609375 C 490.242188 214.148438 488.976562 212.386719 490.433594 211.199219 C 491.890625 210.011719 494.113281 210.085938 494.113281 209.742188 C 494.074219 209.398438 492.769531 205.640625 498.75 206.175781 Z M 498.75 206.175781 "/>
</g>
</g>
<g clip-path="url(#clip13)" clip-rule="nonzero">
<g clip-path="url(#clip14)" clip-rule="nonzero">
<path style=" stroke:none;fill-rule:nonzero;fill:rgb(100%,69.411765%,61.960784%);fill-opacity:1;" d="M 512.398438 227.988281 L 514.199219 213.996094 C 514.199219 213.996094 510.519531 213.460938 509.867188 216.601562 C 509.253906 219.746094 508.296875 226.109375 508.296875 226.109375 L 509.445312 230.480469 Z M 512.398438 227.988281 "/>
</g>
</g>
<g clip-path="url(#clip15)" clip-rule="nonzero">
<g clip-path="url(#clip16)" clip-rule="nonzero">
<path style=" stroke:none;fill-rule:nonzero;fill:rgb(100%,69.411765%,61.960784%);fill-opacity:1;" d="M 488.824219 236.457031 C 488.824219 236.457031 450.953125 292.6875 460 312.503906 C 469.046875 332.285156 483.152344 302.578125 487.097656 292.957031 C 491.046875 283.335938 506.265625 240.253906 506.265625 240.253906 L 491.660156 234.503906 Z M 488.824219 236.457031 "/>
</g>
</g>
<g clip-path="url(#clip17)" clip-rule="nonzero">
<g clip-path="url(#clip18)" clip-rule="nonzero">
<path style=" stroke:none;fill-rule:nonzero;fill:rgb(32.156863%,10.196078%,9.803922%);fill-opacity:1;" d="M 520.484375 207.136719 C 520.484375 207.136719 519.105469 228.792969 511.171875 234.003906 C 511.171875 234.003906 532.828125 246.078125 551.453125 242.515625 C 570.082031 238.949219 587.371094 226.339844 587.371094 226.339844 C 587.371094 226.339844 571.464844 198.625 571.078125 183.410156 C 571.003906 180.765625 570.351562 178.15625 569.046875 175.859375 C 565.828125 170.1875 558.777344 161.445312 545.933594 162.019531 C 527.039062 162.828125 527.382812 167.386719 527.382812 167.386719 C 527.382812 167.386719 520.789062 171.21875 518.335938 178.886719 C 515.882812 186.550781 520.484375 207.136719 520.484375 207.136719 Z M 520.484375 207.136719 "/>
</g>
</g>
<g clip-path="url(#clip19)" clip-rule="nonzero">
<g clip-path="url(#clip20)" clip-rule="nonzero">
<path style=" stroke:none;fill-rule:nonzero;fill:rgb(100%,69.411765%,61.960784%);fill-opacity:1;" d="M 532.558594 223.3125 L 529.796875 242.78125 L 526.5 246.882812 C 526.5 246.882812 532.519531 257.042969 542.140625 254.820312 C 551.722656 252.632812 554.484375 247.152344 554.484375 247.152344 C 554.484375 247.152344 549.269531 234.808594 552.296875 225.765625 C 555.289062 216.757812 532.558594 223.3125 532.558594 223.3125 Z M 532.558594 223.3125 "/>
</g>
</g>
<g clip-path="url(#clip21)" clip-rule="nonzero">
<g clip-path="url(#clip22)" clip-rule="nonzero">
<path style=" stroke:none;fill-rule:nonzero;fill:rgb(100%,69.411765%,61.960784%);fill-opacity:1;" d="M 575.488281 299.242188 L 536.621094 291 L 525.660156 280.921875 L 509.636719 282.761719 C 509.636719 282.761719 506.417969 285.980469 512.398438 288.242188 C 518.335938 290.542969 523.820312 298.746094 523.820312 298.746094 L 567.398438 318.40625 C 567.398438 318.40625 598.523438 329.714844 602.664062 326.496094 L 599.367188 295.488281 L 575.488281 292.074219 Z M 575.488281 299.242188 "/>
</g>
</g>
<g clip-path="url(#clip23)" clip-rule="nonzero">
<g clip-path="url(#clip24)" clip-rule="nonzero">
<path style=" stroke:none;fill-rule:nonzero;fill:rgb(91.764706%,56.470588%,49.803922%);fill-opacity:1;" d="M 535.085938 222.851562 L 552.453125 224.539062 C 552.453125 224.539062 549.84375 233.390625 544.210938 233.390625 C 538.574219 233.390625 532.789062 229.75 534.4375 223.042969 "/>
</g>
</g>
<g clip-path="url(#clip25)" clip-rule="nonzero">
<g clip-path="url(#clip26)" clip-rule="nonzero">
<path style=" stroke:none;fill-rule:nonzero;fill:rgb(100%,69.411765%,61.960784%);fill-opacity:1;" d="M 567.171875 202.765625 C 548.542969 201.003906 528.726562 180.265625 528.726562 180.265625 C 525.160156 186.09375 521.210938 197.78125 518.988281 199.621094 C 520.636719 212.808594 530.832031 228.867188 543.289062 228.867188 C 554.90625 228.867188 564.71875 214.917969 567.363281 202.34375 C 567.246094 202.652344 567.171875 202.765625 567.171875 202.765625 Z M 567.171875 202.765625 "/>
</g>
</g>
<g clip-path="url(#clip27)" clip-rule="nonzero">
<g clip-path="url(#clip28)" clip-rule="nonzero">
<path style=" stroke:none;fill-rule:nonzero;fill:rgb(32.156863%,10.196078%,9.803922%);fill-opacity:1;" d="M 528.992188 198.089844 C 528.992188 198.089844 533.707031 196.785156 537.425781 197.667969 C 537.808594 197.746094 538.039062 197.246094 537.734375 197.015625 C 536.390625 196.058594 534.398438 194.945312 532.289062 194.984375 C 528.535156 195.023438 526.921875 197.09375 528.992188 198.089844 Z M 528.992188 198.089844 "/>
</g>
</g>
<g clip-path="url(#clip29)" clip-rule="nonzero">
<g clip-path="url(#clip30)" clip-rule="nonzero">
<path style=" stroke:none;fill-rule:nonzero;fill:rgb(32.156863%,10.196078%,9.803922%);fill-opacity:1;" d="M 535.894531 202.765625 C 535.894531 201.222656 535.101562 199.96875 534.128906 199.96875 C 533.15625 199.96875 532.367188 201.222656 532.367188 202.765625 C 532.367188 204.3125 533.15625 205.5625 534.128906 205.5625 C 535.101562 205.5625 535.894531 204.3125 535.894531 202.765625 Z M 535.894531 202.765625 "/>
</g>
</g>
<g clip-path="url(#clip31)" clip-rule="nonzero">
<g clip-path="url(#clip32)" clip-rule="nonzero">
<path style=" stroke:none;fill-rule:nonzero;fill:rgb(32.156863%,10.196078%,9.803922%);fill-opacity:1;" d="M 555.863281 199.011719 C 555.863281 199.011719 551.148438 197.707031 547.429688 198.589844 C 547.046875 198.664062 546.816406 198.167969 547.125 197.9375 C 548.464844 196.976562 550.457031 195.867188 552.566406 195.90625 C 556.324219 195.945312 557.933594 198.011719 555.863281 199.011719 Z M 555.863281 199.011719 "/>
</g>
</g>
<g clip-path="url(#clip33)" clip-rule="nonzero">
<g clip-path="url(#clip34)" clip-rule="nonzero">
<path style=" stroke:none;fill-rule:nonzero;fill:rgb(32.156863%,10.196078%,9.803922%);fill-opacity:1;" d="M 552.453125 203.6875 C 552.453125 202.140625 551.660156 200.886719 550.6875 200.886719 C 549.714844 200.886719 548.925781 202.140625 548.925781 203.6875 C 548.925781 205.230469 549.714844 206.484375 550.6875 206.484375 C 551.660156 206.484375 552.453125 205.230469 552.453125 203.6875 Z M 552.453125 203.6875 "/>
</g>
</g>
<g clip-path="url(#clip35)" clip-rule="nonzero">
<g clip-path="url(#clip36)" clip-rule="nonzero">
<path style=" stroke:none;fill-rule:nonzero;fill:rgb(32.156863%,10.196078%,9.803922%);fill-opacity:1;" d="M 540.109375 205.949219 C 540.109375 205.949219 533.09375 211.734375 542.867188 214.339844 C 542.867188 214.304688 537.65625 211.582031 540.109375 205.949219 Z M 540.109375 205.949219 "/>
</g>
</g>
<g clip-path="url(#clip37)" clip-rule="nonzero">
<g clip-path="url(#clip38)" clip-rule="nonzero">
<path style=" stroke:none;fill-rule:nonzero;fill:rgb(91.764706%,56.470588%,49.803922%);fill-opacity:1;" d="M 554.136719 208.402344 C 554.136719 207.933594 552.746094 207.558594 551.03125 207.558594 C 549.320312 207.558594 547.929688 207.933594 547.929688 208.402344 C 547.929688 208.867188 549.320312 209.242188 551.03125 209.242188 C 552.746094 209.242188 554.136719 208.867188 554.136719 208.402344 Z M 554.136719 208.402344 "/>
</g>
</g>
<g clip-path="url(#clip39)" clip-rule="nonzero">
<g clip-path="url(#clip40)" clip-rule="nonzero">
<path style=" stroke:none;fill-rule:nonzero;fill:rgb(91.764706%,56.470588%,49.803922%);fill-opacity:1;" d="M 537.121094 207.019531 C 537.121094 206.554688 535.730469 206.175781 534.015625 206.175781 C 532.300781 206.175781 530.910156 206.554688 530.910156 207.019531 C 530.910156 207.488281 532.300781 207.863281 534.015625 207.863281 C 535.730469 207.863281 537.121094 207.488281 537.121094 207.019531 Z M 537.121094 207.019531 "/>
</g>
</g>
<g clip-path="url(#clip41)" clip-rule="nonzero">
<g clip-path="url(#clip42)" clip-rule="nonzero">
<path style=" stroke:none;fill-rule:nonzero;fill:rgb(100%,100%,100%);fill-opacity:1;" d="M 536.46875 217.90625 C 536.46875 217.90625 548.503906 214.800781 549.308594 215.453125 C 550.113281 216.105469 547.007812 221.738281 543.214844 221.816406 C 539.457031 221.894531 534.359375 218.519531 536.46875 217.90625 Z M 536.46875 217.90625 "/>
</g>
</g>
<path style=" stroke:none;fill-rule:nonzero;fill:rgb(85.882353%,87.843137%,89.411765%);fill-opacity:1;" d="M 544.171875 368.351562 C 528.148438 368.351562 512.589844 365.210938 497.945312 359.039062 C 483.800781 353.058594 471.113281 344.511719 460.191406 333.585938 C 449.265625 322.664062 440.71875 309.976562 434.738281 295.832031 C 428.53125 281.1875 425.425781 265.628906 425.425781 249.605469 C 425.425781 233.582031 428.570312 218.023438 434.738281 203.378906 C 440.71875 189.234375 449.265625 176.546875 460.191406 165.625 C 471.113281 154.699219 483.800781 146.152344 497.945312 140.171875 C 512.589844 133.964844 528.148438 130.859375 544.171875 130.859375 C 560.195312 130.859375 575.757812 134 590.398438 140.171875 C 604.542969 146.152344 617.230469 154.699219 628.152344 165.625 C 639.078125 176.546875 647.625 189.234375 653.605469 203.378906 C 659.8125 218.023438 662.917969 233.582031 662.917969 249.605469 C 662.917969 265.628906 659.777344 281.1875 653.605469 295.832031 C 647.625 309.976562 639.078125 322.664062 628.152344 333.585938 C 617.230469 344.511719 604.542969 353.058594 590.398438 359.039062 C 575.71875 365.210938 560.195312 368.351562 544.171875 368.351562 Z M 544.171875 132.355469 C 479.507812 132.355469 426.921875 184.941406 426.921875 249.605469 C 426.921875 314.269531 479.507812 366.855469 544.171875 366.855469 C 608.835938 366.855469 661.425781 314.269531 661.425781 249.605469 C 661.421875 184.941406 608.796875 132.355469 544.171875 132.355469 Z M 544.171875 132.355469 "/>
<path style=" stroke:none;fill-rule:nonzero;fill:rgb(92.156863%,33.72549%,29.019608%);fill-opacity:1;" d="M 480.3125 162.710938 C 480.3125 177.742188 468.128906 189.925781 453.101562 189.925781 C 438.070312 189.925781 425.886719 177.742188 425.886719 162.710938 C 425.886719 147.679688 438.070312 135.496094 453.101562 135.496094 C 468.128906 135.496094 480.3125 147.679688 480.3125 162.710938 Z M 480.3125 162.710938 "/>
<path style=" stroke:none;fill-rule:nonzero;fill:rgb(100%,100%,100%);fill-opacity:1;" d="M 447.925781 171.183594 L 437.347656 160.066406 L 437.996094 159.453125 L 448.039062 169.957031 L 468.355469 154.242188 L 468.890625 154.96875 Z M 447.925781 171.183594 "/>
<path style=" stroke:none;fill-rule:nonzero;fill:rgb(97.647059%,34.509804%,34.509804%);fill-opacity:1;" d="M 187.742188 625.699219 C 187.742188 633.851562 181.132812 640.457031 172.984375 640.457031 C 164.832031 640.457031 158.226562 633.851562 158.226562 625.699219 C 158.226562 617.550781 164.832031 610.941406 172.984375 610.941406 C 181.132812 610.941406 187.742188 617.550781 187.742188 625.699219 Z M 187.742188 625.699219 "/>
<path style=" stroke:none;fill-rule:nonzero;fill:rgb(97.647059%,34.509804%,34.509804%);fill-opacity:1;" d="M 278.085938 625.699219 C 278.085938 633.851562 271.476562 640.457031 263.328125 640.457031 C 255.175781 640.457031 248.570312 633.851562 248.570312 625.699219 C 248.570312 617.550781 255.175781 610.941406 263.328125 610.941406 C 271.476562 610.941406 278.085938 617.550781 278.085938 625.699219 Z M 278.085938 625.699219 "/>
<path style=" stroke:none;fill-rule:nonzero;fill:rgb(97.647059%,34.509804%,34.509804%);fill-opacity:1;" d="M 231.503906 624.609375 L 212.722656 624.609375 L 212.722656 528.9375 L 231.503906 528.9375 Z M 231.503906 624.609375 "/>
<path style=" stroke:none;fill-rule:nonzero;fill:rgb(97.647059%,34.509804%,34.509804%);fill-opacity:1;" d="M 268.261719 624.636719 L 176.003906 624.636719 L 176.003906 615.015625 L 268.261719 615.015625 Z M 268.261719 624.636719 "/>
<path style=" stroke:none;fill-rule:nonzero;fill:rgb(89.803922%,28.235294%,28.235294%);fill-opacity:1;" d="M 168.574219 369.5 L 185.632812 357.3125 L 238.988281 357.8125 L 286.554688 548.121094 C 286.554688 548.121094 251.175781 578.898438 190.921875 539.152344 C 141.515625 506.570312 160.257812 404.917969 168.574219 369.5 Z M 168.574219 369.5 "/>
<path style=" stroke:none;fill-rule:nonzero;fill:rgb(97.647059%,34.509804%,34.509804%);fill-opacity:1;" d="M 253.09375 357.851562 L 185.824219 357.199219 C 185.824219 357.199219 144.160156 491.125 204.414062 530.832031 C 264.632812 570.542969 300.660156 548.121094 300.660156 548.121094 Z M 253.09375 357.851562 "/>
<path style=" stroke:none;fill-rule:nonzero;fill:rgb(7.45098%,26.666667%,54.901961%);fill-opacity:1;" d="M 273.792969 465.710938 L 324.425781 519.410156 C 331.171875 526.539062 330.214844 537.960938 322.394531 543.867188 L 230.671875 613.511719 L 219.132812 596.835938 L 275.515625 528.953125 L 222.964844 470.003906 Z M 273.792969 465.710938 "/>
<path style=" stroke:none;fill-rule:nonzero;fill:rgb(11.372549%,32.941176%,70.980392%);fill-opacity:1;" d="M 251.175781 473.835938 L 296.980469 527.269531 C 301.925781 533.019531 303.34375 541.027344 300.660156 548.160156 L 267.851562 635.320312 L 253.746094 635.320312 L 262.714844 548.160156 L 228.792969 524.738281 C 216.179688 516.039062 208.171875 502.164062 206.945312 486.90625 L 205.066406 463.601562 Z M 251.175781 473.835938 "/>
<path style=" stroke:none;fill-rule:nonzero;fill:rgb(75.294118%,85.882353%,98.823529%);fill-opacity:1;" d="M 164.4375 473.835938 L 582.847656 473.835938 C 588.023438 473.835938 592.238281 469.621094 592.238281 464.445312 C 592.238281 459.269531 588.023438 455.054688 582.847656 455.054688 L 164.4375 455.054688 C 159.261719 455.054688 155.046875 459.269531 155.046875 464.445312 C 155.046875 469.621094 159.261719 473.835938 164.4375 473.835938 Z M 164.4375 473.835938 "/>
<path style=" stroke:none;fill-rule:nonzero;fill:rgb(10.196078%,42.352941%,95.294118%);fill-opacity:1;" d="M 373.375 455.132812 L 402.351562 465.058594 C 402.621094 465.136719 402.847656 465.175781 403.117188 465.175781 L 433.628906 465.175781 C 435.507812 465.175781 436.695312 463.105469 435.660156 461.496094 L 429.449219 451.566406 C 429.027344 450.875 428.222656 450.453125 427.417969 450.453125 L 374.140625 450.453125 C 371.417969 450.453125 370.804688 454.25 373.375 455.132812 Z M 373.375 455.132812 "/>
<path style=" stroke:none;fill-rule:nonzero;fill:rgb(11.372549%,32.941176%,70.980392%);fill-opacity:1;" d="M 373.375 455.132812 L 402.351562 465.058594 C 402.621094 465.136719 402.847656 465.175781 403.117188 465.175781 L 406.183594 465.175781 C 405.953125 464.140625 405.761719 462.796875 404.6875 462.453125 C 403.539062 462.070312 400.816406 459.617188 400.816406 459.617188 L 374.253906 450.417969 L 374.101562 450.417969 C 371.417969 450.453125 370.804688 454.25 373.375 455.132812 Z M 373.375 455.132812 "/>
<path style=" stroke:none;fill-rule:nonzero;fill:rgb(25.882353%,52.54902%,90.980392%);fill-opacity:1;" d="M 466.285156 419.0625 L 334.546875 419.0625 L 352.636719 320.632812 L 472.726562 321.703125 C 478.320312 321.742188 482.539062 326.839844 481.578125 332.359375 Z M 466.285156 419.0625 "/>
<path style=" stroke:none;fill-rule:nonzero;fill:rgb(18.823529%,43.921569%,80.784314%);fill-opacity:1;" d="M 334.546875 419.0625 L 475.445312 419.0625 L 476.519531 411.167969 L 482.539062 377.089844 L 491.8125 324.425781 C 492.773438 318.90625 488.554688 313.847656 482.960938 313.769531 L 362.871094 312.695312 C 362.871094 312.695312 355.167969 313.464844 352.675781 320.59375 C 352.675781 320.59375 361.335938 319.632812 359.996094 327.339844 L 360.1875 327.339844 L 359.691406 329.984375 L 344.777344 411.128906 C 344.742188 411.167969 342.632812 417.722656 334.546875 419.0625 Z M 334.546875 419.0625 "/>
<path style=" stroke:none;fill-rule:nonzero;fill:rgb(11.372549%,32.941176%,70.980392%);fill-opacity:1;" d="M 334.546875 419.0625 L 475.445312 419.0625 L 476.519531 411.167969 L 482.539062 377.089844 C 463.179688 374.101562 394.1875 361.492188 359.726562 330.023438 L 344.816406 411.167969 C 344.742188 411.167969 342.632812 417.722656 334.546875 419.0625 Z M 334.546875 419.0625 "/>
<path style=" stroke:none;fill-rule:nonzero;fill:rgb(11.372549%,32.941176%,70.980392%);fill-opacity:1;" d="M 428.53125 387.480469 L 385.179688 387.480469 L 398.097656 460.382812 C 398.632812 463.449219 401.316406 465.671875 404.421875 465.671875 L 437.347656 465.671875 C 441.410156 465.671875 444.476562 461.914062 443.59375 457.929688 Z M 428.53125 387.480469 "/>
<path style=" stroke:none;fill-rule:nonzero;fill:rgb(25.882353%,52.54902%,90.980392%);fill-opacity:1;" d="M 435.085938 387.480469 L 391.734375 387.480469 L 404.652344 460.382812 C 405.1875 463.449219 407.871094 465.671875 410.976562 465.671875 L 443.902344 465.671875 C 447.964844 465.671875 451.03125 461.914062 450.148438 457.929688 Z M 435.085938 387.480469 "/>
<path style=" stroke:none;fill-rule:nonzero;fill:rgb(100%,69.411765%,61.960784%);fill-opacity:1;" d="M 328.640625 376.132812 C 328.640625 376.132812 330.367188 373.71875 329.792969 370.308594 C 329.21875 366.894531 329.945312 359.496094 331.058594 359.34375 C 332.167969 359.191406 332.78125 362.488281 332.78125 364.328125 C 332.78125 364.328125 338.609375 354.363281 338.761719 350.796875 C 338.914062 347.230469 341.175781 345.390625 342.171875 348.074219 C 343.167969 350.757812 346.582031 363.445312 343.015625 372.300781 C 339.453125 381.117188 332.054688 386.519531 332.054688 386.519531 L 326.496094 383.109375 Z M 328.640625 376.132812 "/>
<path style=" stroke:none;fill-rule:nonzero;fill:rgb(100%,69.411765%,61.960784%);fill-opacity:1;" d="M 274.558594 364.25 L 263.328125 385.523438 L 249.875 377.054688 L 257.273438 352.101562 Z M 274.558594 364.25 "/>
<path style=" stroke:none;fill-rule:nonzero;fill:rgb(32.156863%,10.196078%,9.803922%);fill-opacity:1;" d="M 289.621094 357.464844 C 289.621094 357.464844 306.296875 343.359375 301.582031 330.558594 C 301.582031 330.558594 303.726562 310.894531 286.632812 309.207031 C 269.539062 307.484375 249.03125 311.546875 249.03125 335.15625 C 249.03125 358.769531 272.949219 359.191406 272.949219 359.191406 Z M 289.621094 357.464844 "/>
<path style=" stroke:none;fill-rule:nonzero;fill:rgb(100%,69.411765%,61.960784%);fill-opacity:1;" d="M 296.136719 340.601562 C 296.136719 340.601562 287.476562 377.4375 269.230469 373.296875 C 250.984375 369.15625 249.683594 351.832031 249.683594 351.832031 C 249.683594 351.832031 239.753906 345.429688 249.03125 335.15625 C 258.304688 324.925781 257.042969 338.683594 257.042969 338.683594 L 264.09375 327.796875 Z M 296.136719 340.601562 "/>
<path style=" stroke:none;fill-rule:nonzero;fill:rgb(25.882353%,52.54902%,90.980392%);fill-opacity:1;" d="M 197.976562 456.320312 L 286.710938 456.320312 L 285.75 445.089844 L 272.296875 444.128906 C 272.296875 444.128906 270.6875 427.800781 273.90625 421.402344 L 298.78125 454.25 L 335.734375 391.160156 L 326.765625 371.917969 C 326.765625 371.917969 299.203125 418.679688 298.78125 420.75 L 282.222656 389.96875 C 282.222656 389.96875 274.863281 377.476562 267.160156 379.085938 L 263.328125 385.484375 L 250.832031 372.03125 C 250.832031 372.03125 223.925781 370.117188 219.441406 376.515625 C 214.953125 382.957031 192.226562 428.453125 197.976562 456.320312 Z M 197.976562 456.320312 "/>
<path style=" stroke:none;fill-rule:nonzero;fill:rgb(100%,100%,100%);fill-opacity:1;" d="M 245.617188 440.527344 L 263.980469 443.515625 C 263.980469 443.515625 271.222656 417.683594 267.199219 379.121094 L 263.367188 385.523438 L 250.871094 372.070312 C 250.832031 372.070312 235.808594 418.296875 245.617188 440.527344 Z M 245.617188 440.527344 "/>
<path style=" stroke:none;fill-rule:nonzero;fill:rgb(7.45098%,26.666667%,54.901961%);fill-opacity:1;" d="M 245.617188 440.527344 L 220.398438 436.234375 L 232.355469 397.789062 L 227.257812 429.832031 Z M 245.617188 440.527344 "/>
<path style=" stroke:none;fill-rule:nonzero;fill:rgb(100%,69.411765%,61.960784%);fill-opacity:1;" d="M 286.746094 456.320312 L 285.789062 445.96875 C 285.789062 445.96875 304.148438 447.886719 308.019531 456.742188 Z M 286.746094 456.320312 "/>
<path style=" stroke:none;fill-rule:nonzero;fill:rgb(32.156863%,10.196078%,9.803922%);fill-opacity:1;" d="M 270.226562 345.125 C 270.226562 344.933594 270.34375 340.679688 268.082031 339.605469 C 266.699219 338.953125 264.785156 339.679688 262.371094 341.789062 L 262.753906 342.210938 C 264.976562 340.257812 266.699219 339.566406 267.851562 340.140625 C 269.765625 341.0625 269.691406 345.085938 269.691406 345.125 Z M 270.226562 345.125 "/>
<path style=" stroke:none;fill-rule:nonzero;fill:rgb(32.156863%,10.196078%,9.803922%);fill-opacity:1;" d="M 285.980469 351.371094 C 285.980469 351.179688 286.09375 346.925781 283.835938 345.851562 C 282.453125 345.199219 280.539062 345.929688 278.125 348.039062 L 278.507812 348.457031 C 280.730469 346.503906 282.453125 345.8125 283.605469 346.390625 C 285.519531 347.308594 285.445312 351.332031 285.445312 351.371094 Z M 285.980469 351.371094 "/>
<path style=" stroke:none;fill-rule:nonzero;fill:rgb(32.156863%,10.196078%,9.803922%);fill-opacity:1;" d="M 274.058594 356.660156 C 271.914062 356.660156 269.460938 354.976562 269.308594 354.859375 L 269.730469 354.246094 C 269.765625 354.285156 274.136719 357.273438 275.746094 355.128906 C 276.128906 354.589844 276.246094 354.09375 276.128906 353.632812 C 275.863281 352.597656 274.480469 351.832031 273.984375 351.601562 L 273.714844 351.488281 L 274.328125 347.84375 L 275.09375 347.960938 L 274.558594 351.027344 C 275.171875 351.332031 276.550781 352.175781 276.859375 353.441406 C 277.050781 354.167969 276.898438 354.898438 276.359375 355.625 C 275.785156 356.394531 274.941406 356.660156 274.058594 356.660156 Z M 274.058594 356.660156 "/>
<path style=" stroke:none;fill-rule:nonzero;fill:rgb(32.156863%,10.196078%,9.803922%);fill-opacity:1;" d="M 272.410156 361.988281 C 272.410156 361.078125 270.78125 360.339844 268.769531 360.339844 C 266.757812 360.339844 265.128906 361.078125 265.128906 361.988281 C 265.128906 362.898438 266.757812 363.636719 268.769531 363.636719 C 270.78125 363.636719 272.410156 362.898438 272.410156 361.988281 Z M 272.410156 361.988281 "/>
<path style=" stroke:none;fill-rule:nonzero;fill:rgb(18.823529%,43.921569%,80.784314%);fill-opacity:1;" d="M 239.832031 338.1875 C 239.832031 341.519531 241.480469 344.433594 244.007812 346.195312 C 245.621094 347.347656 247.574219 348 249.683594 348 C 255.125 348 259.496094 343.589844 259.496094 338.1875 C 259.496094 336.5 259.074219 334.929688 258.34375 333.546875 C 256.695312 330.480469 253.4375 328.375 249.683594 328.375 C 244.238281 328.375 239.832031 332.78125 239.832031 338.1875 Z M 239.832031 338.1875 "/>
<path style=" stroke:none;fill-rule:nonzero;fill:rgb(11.372549%,32.941176%,70.980392%);fill-opacity:1;" d="M 256.007812 338.1875 C 256.007812 341.679688 253.175781 344.511719 249.683594 344.511719 C 246.1875 344.511719 243.359375 341.679688 243.359375 338.1875 C 243.359375 334.695312 246.1875 331.863281 249.683594 331.863281 C 253.175781 331.863281 256.007812 334.695312 256.007812 338.1875 Z M 256.007812 338.1875 "/>
<path style=" stroke:none;fill-rule:nonzero;fill:rgb(18.823529%,43.921569%,80.784314%);fill-opacity:1;" d="M 248.609375 329.023438 C 248.609375 329.023438 255.507812 303.304688 283.066406 308.863281 C 283.066406 308.863281 257.347656 311.277344 252.671875 329.640625 Z M 248.609375 329.023438 "/>
<path style=" stroke:none;fill-rule:nonzero;fill:rgb(11.372549%,32.941176%,70.980392%);fill-opacity:1;" d="M 244.007812 346.234375 C 245.621094 347.386719 247.574219 348.039062 249.683594 348.039062 C 255.125 348.039062 259.496094 343.628906 259.496094 338.226562 C 259.496094 336.539062 259.074219 334.964844 258.34375 333.585938 C 258.5 334.507812 260.183594 347.308594 246.808594 346.773438 Z M 244.007812 346.234375 "/>
<path style=" stroke:none;fill-rule:nonzero;fill:rgb(18.823529%,43.921569%,80.784314%);fill-opacity:1;" d="M 265.933594 363.023438 L 266.277344 361.375 C 254.433594 358.960938 251.023438 345.316406 250.984375 345.199219 L 249.375 345.585938 C 249.492188 346.195312 253.054688 360.378906 265.933594 363.023438 Z M 265.933594 363.023438 "/>
<path style=" stroke:none;fill-rule:nonzero;fill:rgb(11.372549%,32.941176%,70.980392%);fill-opacity:1;" d="M 263.175781 364.136719 L 265.4375 364.980469 C 266.738281 365.476562 268.15625 364.789062 268.65625 363.523438 C 269.152344 362.21875 268.464844 360.800781 267.199219 360.304688 L 264.9375 359.460938 C 263.632812 358.960938 262.214844 359.652344 261.71875 360.914062 C 261.21875 362.21875 261.871094 363.636719 263.175781 364.136719 Z M 263.175781 364.136719 "/>
<path style=" stroke:none;fill-rule:nonzero;fill:rgb(7.45098%,26.666667%,54.901961%);fill-opacity:1;" d="M 256.8125 392.460938 L 262.371094 387.441406 L 266.011719 393.191406 L 263.789062 392.652344 L 260.566406 442.867188 L 252.328125 441.675781 L 260.261719 392.117188 Z M 256.8125 392.460938 "/>
<path style=" stroke:none;fill-rule:nonzero;fill:rgb(32.156863%,10.196078%,9.803922%);fill-opacity:1;" d="M 272.449219 339.757812 C 272.449219 339.757812 269.117188 336.269531 266.738281 336.539062 C 264.402344 336.804688 263.097656 337.304688 263.097656 337.304688 C 263.097656 337.304688 266.433594 334.160156 268.425781 334.46875 C 270.417969 334.738281 273.984375 338.109375 273.984375 338.109375 C 273.984375 338.109375 274.097656 339.679688 272.449219 339.757812 Z M 272.449219 339.757812 "/>
<path style=" stroke:none;fill-rule:nonzero;fill:rgb(32.156863%,10.196078%,9.803922%);fill-opacity:1;" d="M 281.457031 342.554688 C 281.457031 342.554688 286.210938 343.398438 287.285156 345.546875 C 288.355469 347.652344 288.625 348.996094 288.625 348.996094 C 288.625 348.996094 289.390625 344.472656 288.050781 342.976562 C 286.710938 341.484375 281.957031 340.371094 281.957031 340.371094 C 281.957031 340.371094 280.613281 341.136719 281.457031 342.554688 Z M 281.457031 342.554688 "/>
<path style=" stroke:none;fill-rule:nonzero;fill:rgb(91.764706%,56.470588%,49.803922%);fill-opacity:1;" d="M 265.128906 344.652344 C 263.320312 343.773438 261.628906 343.523438 261.351562 344.09375 C 261.074219 344.664062 262.3125 345.839844 264.121094 346.71875 C 265.929688 347.597656 267.621094 347.851562 267.898438 347.277344 C 268.175781 346.707031 266.9375 345.53125 265.128906 344.652344 Z M 265.128906 344.652344 "/>
<path style=" stroke:none;fill-rule:nonzero;fill:rgb(91.764706%,56.470588%,49.803922%);fill-opacity:1;" d="M 281.851562 351.546875 C 280.042969 350.667969 278.351562 350.417969 278.074219 350.988281 C 277.796875 351.558594 279.035156 352.734375 280.84375 353.613281 C 282.652344 354.496094 284.34375 354.746094 284.621094 354.171875 C 284.898438 353.601562 283.660156 352.425781 281.851562 351.546875 Z M 281.851562 351.546875 "/>
<path style=" stroke:none;fill-rule:nonzero;fill:rgb(5.098039%,17.647059%,32.941176%);fill-opacity:1;" d="M 267.8125 635.320312 C 267.8125 635.320312 294.71875 643.023438 294.070312 648.773438 C 293.417969 654.523438 251.140625 649.425781 251.140625 649.425781 L 253.707031 635.320312 Z M 267.8125 635.320312 "/>
<path style=" stroke:none;fill-rule:nonzero;fill:rgb(5.098039%,17.647059%,32.941176%);fill-opacity:1;" d="M 230.671875 613.511719 C 230.671875 613.511719 240.292969 632.753906 238.375 638.503906 C 236.457031 644.25 205.679688 607.761719 205.679688 607.761719 L 219.132812 596.875 Z M 230.671875 613.511719 "/>
<path style=" stroke:none;fill-rule:nonzero;fill:rgb(75.294118%,85.882353%,98.823529%);fill-opacity:1;" d="M 532.980469 676.335938 L 476.480469 469.007812 L 488.058594 465.863281 L 545.4375 676.335938 Z M 532.980469 676.335938 "/>
<path style=" stroke:none;fill-rule:nonzero;fill:rgb(75.294118%,85.882353%,98.823529%);fill-opacity:1;" d="M 163.402344 675.03125 L 219.898438 467.703125 L 208.324219 464.5625 L 150.980469 675.03125 Z M 163.402344 675.03125 "/>
<path style=" stroke:none;fill-rule:nonzero;fill:rgb(18.823529%,43.921569%,80.784314%);fill-opacity:1;" d="M 246.195312 157.269531 L 158.496094 157.269531 L 158.496094 210.699219 L 218.558594 210.699219 L 227.835938 232.625 L 235.15625 210.699219 L 246.195312 210.699219 Z M 246.195312 157.269531 "/>
<path style=" stroke:none;fill-rule:nonzero;fill:rgb(75.294118%,85.882353%,98.823529%);fill-opacity:1;" d="M 167.539062 166.8125 L 237.148438 166.8125 L 237.148438 170.148438 L 167.539062 170.148438 Z M 167.539062 166.8125 "/>
<path style=" stroke:none;fill-rule:nonzero;fill:rgb(75.294118%,85.882353%,98.823529%);fill-opacity:1;" d="M 167.539062 176.816406 L 237.148438 176.816406 L 237.148438 180.152344 L 167.539062 180.152344 Z M 167.539062 176.816406 "/>
<path style=" stroke:none;fill-rule:nonzero;fill:rgb(75.294118%,85.882353%,98.823529%);fill-opacity:1;" d="M 167.539062 186.859375 L 237.148438 186.859375 L 237.148438 190.195312 L 167.539062 190.195312 Z M 167.539062 186.859375 "/>
<path style=" stroke:none;fill-rule:nonzero;fill:rgb(75.294118%,85.882353%,98.823529%);fill-opacity:1;" d="M 167.539062 196.863281 L 237.148438 196.863281 L 237.148438 200.199219 L 167.539062 200.199219 Z M 167.539062 196.863281 "/>
<path style=" stroke:none;fill-rule:nonzero;fill:rgb(92.156863%,33.72549%,29.019608%);fill-opacity:1;" d="M 258.917969 204.644531 L 343.167969 204.644531 L 343.167969 255.96875 L 285.484375 255.96875 L 276.550781 277.011719 L 269.5 255.96875 L 258.917969 255.96875 Z M 258.917969 204.644531 "/>
<path style=" stroke:none;fill-rule:nonzero;fill:rgb(100%,100%,100%);fill-opacity:1;" d="M 334.460938 217.035156 L 267.613281 217.035156 L 267.613281 213.8125 L 334.460938 213.8125 Z M 334.460938 217.035156 "/>
<path style=" stroke:none;fill-rule:nonzero;fill:rgb(100%,100%,100%);fill-opacity:1;" d="M 334.460938 226.648438 L 267.613281 226.648438 L 267.613281 223.429688 L 334.460938 223.429688 Z M 334.460938 226.648438 "/>
<path style=" stroke:none;fill-rule:nonzero;fill:rgb(100%,100%,100%);fill-opacity:1;" d="M 334.460938 236.261719 L 267.613281 236.261719 L 267.613281 233.042969 L 334.460938 233.042969 Z M 334.460938 236.261719 "/>
<path style=" stroke:none;fill-rule:nonzero;fill:rgb(100%,100%,100%);fill-opacity:1;" d="M 334.460938 245.875 L 267.613281 245.875 L 267.613281 242.65625 L 334.460938 242.65625 Z M 334.460938 245.875 "/>
<path style=" stroke:none;fill-rule:nonzero;fill:rgb(26.27451%,52.54902%,91.372549%);fill-opacity:1;" d="M 605.460938 368.503906 C 605.460938 368.503906 605.347656 368.621094 605.195312 368.8125 C 604.160156 369.886719 600.59375 373.679688 599.445312 375.023438 C 598.101562 376.59375 594.730469 377.476562 587.140625 381.960938 C 579.511719 386.445312 581.3125 386.445312 579.511719 389.125 C 577.710938 391.808594 575.488281 393.382812 567.859375 396.066406 C 560.230469 398.746094 555.324219 398.976562 555.324219 398.976562 L 551.070312 411.511719 L 550.382812 411.742188 L 549.730469 411.972656 L 551.148438 405.914062 L 552.488281 400.089844 L 553.101562 397.484375 C 553.101562 397.484375 553.753906 391.65625 557.585938 389.664062 C 561.382812 387.671875 561.382812 387.863281 564.753906 386.097656 C 568.128906 384.296875 568.550781 383.1875 573.035156 379.621094 C 577.519531 376.054688 577.058594 377.167969 584.6875 375.136719 C 592.238281 372.988281 605.460938 368.503906 605.460938 368.503906 Z M 605.460938 368.503906 "/>
<path style=" stroke:none;fill-rule:nonzero;fill:rgb(26.27451%,52.54902%,91.372549%);fill-opacity:1;" d="M 543.902344 413.503906 L 543.75 413.65625 L 543.367188 414.042969 L 540.953125 405.914062 C 540.953125 405.914062 538.308594 405.6875 536.542969 405.457031 C 534.742188 405.226562 532.980469 404.996094 531.636719 404.34375 C 530.296875 403.652344 528.726562 403.003906 527.84375 402.773438 C 526.960938 402.542969 524.046875 402.3125 520.445312 400.550781 C 516.882812 398.746094 519.105469 399.207031 517.304688 397.636719 C 515.5 396.066406 515.960938 396.066406 515.269531 395.605469 C 514.621094 395.144531 513.046875 394.722656 512.359375 394.261719 C 511.667969 393.804688 508.332031 392.921875 506.070312 391.121094 C 503.847656 389.320312 504.039062 385.753906 502.277344 383.070312 C 500.476562 380.386719 499.363281 380.386719 497.792969 377.933594 C 496.222656 375.480469 494.878906 371.648438 494.878906 371.648438 C 494.878906 371.648438 500.707031 375.902344 502.046875 377.015625 C 503.390625 378.125 507.414062 379.46875 508.523438 380.578125 C 509.636719 381.691406 519.488281 386.175781 521.519531 387.058594 C 523.550781 387.9375 539.417969 398.25 540.53125 399.132812 C 541.679688 400.050781 543.902344 413.503906 543.902344 413.503906 Z M 543.902344 413.503906 "/>
<path style=" stroke:none;fill-rule:nonzero;fill:rgb(26.27451%,52.54902%,91.372549%);fill-opacity:1;" d="M 547.46875 413.273438 L 546.355469 414.386719 L 543.445312 395.566406 C 543.445312 395.566406 540.992188 391.542969 540.300781 390.851562 C 539.609375 390.199219 539.1875 389.742188 537.386719 387.9375 C 535.585938 386.136719 535.816406 384.796875 534.933594 382.800781 C 534.054688 380.769531 533.132812 379.429688 532.023438 369.15625 C 530.910156 358.847656 530.449219 364.019531 528.648438 358.65625 C 526.847656 353.289062 529.300781 351.488281 528.878906 346.351562 C 528.457031 341.367188 531.179688 336.347656 531.332031 336.078125 C 531.332031 336.078125 531.332031 339.453125 532.441406 343.246094 C 533.554688 347.039062 533.785156 345.699219 534.476562 349.953125 C 535.125 354.207031 534.703125 353.097656 534.933594 356.890625 C 535.164062 360.6875 536.277344 359.34375 537.847656 362.949219 C 539.417969 366.511719 538.730469 366.089844 538.730469 370.574219 C 538.730469 375.058594 540.53125 376.863281 543.867188 383.570312 C 547.238281 390.277344 546.320312 390.277344 546.320312 392.960938 C 546.355469 395.566406 547.46875 413.273438 547.46875 413.273438 Z M 547.46875 413.273438 "/>
<path style=" stroke:none;fill-rule:nonzero;fill:rgb(26.27451%,52.54902%,91.372549%);fill-opacity:1;" d="M 573.457031 334.238281 C 571.425781 337.609375 571.003906 339.835938 568.089844 346.082031 C 565.175781 352.367188 568.089844 352.367188 567.859375 357.503906 C 567.628906 362.640625 567.859375 363.5625 565.636719 367.585938 C 563.414062 371.609375 562.492188 374.0625 559.8125 379.46875 C 557.128906 384.832031 553.984375 386.636719 553.984375 391.542969 C 553.984375 396.449219 551.992188 396.027344 550.421875 399.359375 C 549 402.390625 548.695312 412.851562 548.65625 414.921875 C 548.65625 415.152344 548.65625 415.269531 548.65625 415.269531 C 546.203125 410.132812 548.886719 399.589844 548.886719 399.589844 C 548.886719 399.589844 550.457031 392.652344 550.226562 391.542969 C 550 390.429688 550 387.746094 549.769531 386.175781 C 549.539062 384.605469 550.648438 378.546875 550.648438 374.984375 C 550.648438 371.417969 550.648438 371.417969 551.53125 367.164062 C 552.414062 362.910156 553.984375 363.367188 555.554688 358.882812 C 557.128906 354.398438 557.359375 354.398438 559.582031 350.144531 C 561.574219 346.351562 572.765625 333.894531 573.609375 333.777344 C 573.6875 333.738281 573.648438 333.894531 573.457031 334.238281 Z M 573.457031 334.238281 "/>
<path style=" stroke:none;fill-rule:nonzero;fill:rgb(11.372549%,32.941176%,70.980392%);fill-opacity:1;" d="M 605.15625 368.773438 C 604.121094 369.847656 600.554688 373.640625 599.40625 374.984375 C 598.0625 376.554688 594.691406 377.4375 587.101562 381.921875 C 579.472656 386.40625 581.277344 386.40625 579.472656 389.089844 C 577.671875 391.773438 575.449219 393.34375 567.820312 396.027344 C 560.195312 398.710938 555.289062 398.9375 555.289062 398.9375 L 551.03125 411.472656 L 550.34375 411.703125 C 550.34375 411.703125 550.535156 409.058594 551.070312 405.839844 C 551.378906 403.921875 551.839844 401.851562 552.414062 400.011719 C 553.066406 397.941406 553.945312 396.179688 555.019531 395.375 C 558.699219 392.691406 562.722656 391.578125 567.785156 388.667969 C 572.804688 385.753906 573.265625 383.53125 577.40625 381.84375 C 581.542969 380.15625 583.765625 380.960938 586.375 379.507812 C 588.941406 378.050781 601.015625 371.6875 602.394531 370.765625 C 603.125 370.269531 604.234375 369.464844 605.15625 368.773438 Z M 605.15625 368.773438 "/>
<path style=" stroke:none;fill-rule:nonzero;fill:rgb(11.372549%,32.941176%,70.980392%);fill-opacity:1;" d="M 573.457031 334.238281 C 571.425781 337.609375 571.003906 339.835938 568.089844 346.082031 C 565.175781 352.367188 568.089844 352.367188 567.859375 357.503906 C 567.628906 362.640625 567.859375 363.5625 565.636719 367.585938 C 563.414062 371.609375 562.492188 374.0625 559.8125 379.46875 C 557.128906 384.832031 553.984375 386.636719 553.984375 391.542969 C 553.984375 396.449219 551.992188 396.027344 550.421875 399.359375 C 549 402.390625 548.695312 412.851562 548.65625 414.921875 C 548.617188 414.921875 548.578125 414.921875 548.578125 414.921875 C 548.578125 414.921875 547.582031 404.496094 549.347656 400.242188 C 551.109375 395.949219 552.375 392.921875 552.527344 390.507812 C 552.679688 388.09375 551.03125 384.449219 553.792969 378.355469 C 556.554688 372.222656 556.972656 370.804688 557.320312 370.113281 C 557.664062 369.464844 558.507812 363.484375 560.269531 358.117188 C 562.035156 352.75 562.1875 350.910156 562.457031 350.566406 C 562.722656 350.222656 567.746094 342.515625 568.242188 341.675781 C 568.703125 340.90625 572.84375 334.964844 573.648438 333.816406 C 573.6875 333.738281 573.648438 333.894531 573.457031 334.238281 Z M 573.457031 334.238281 "/>
<path style=" stroke:none;fill-rule:nonzero;fill:rgb(11.372549%,32.941176%,70.980392%);fill-opacity:1;" d="M 547.46875 413.273438 L 547.085938 413.65625 C 546.625 410.207031 545.707031 403.460938 545.707031 403.078125 C 545.707031 402.582031 544.019531 391.503906 543.671875 390.8125 C 543.328125 390.160156 543.175781 386.636719 541.679688 383.761719 C 540.1875 380.886719 539.152344 379.390625 538 377.207031 C 536.8125 375.023438 536.507812 374.867188 535.164062 371.992188 C 533.824219 369.15625 535.316406 369.65625 535.316406 368.46875 C 535.316406 367.277344 535.164062 364.789062 534.128906 362.410156 C 533.132812 360.074219 533.285156 360.570312 532.632812 357.542969 C 531.984375 354.515625 532.289062 353.671875 530.601562 348.152344 C 528.957031 342.746094 531.253906 336.347656 531.371094 336.039062 C 531.371094 336.039062 531.371094 339.414062 532.480469 343.207031 C 533.59375 347.003906 533.824219 345.660156 534.511719 349.914062 C 535.164062 354.171875 534.742188 353.058594 534.972656 356.851562 C 535.203125 360.648438 536.316406 359.304688 537.886719 362.910156 C 539.457031 366.472656 538.765625 366.050781 538.765625 370.535156 C 538.765625 375.023438 540.570312 376.824219 543.902344 383.53125 C 547.277344 390.238281 546.355469 390.238281 546.355469 392.921875 C 546.355469 395.566406 547.46875 413.273438 547.46875 413.273438 Z M 547.46875 413.273438 "/>
<path style=" stroke:none;fill-rule:nonzero;fill:rgb(11.372549%,32.941176%,70.980392%);fill-opacity:1;" d="M 543.902344 413.503906 L 543.75 413.65625 L 541.414062 404.460938 C 541.414062 404.460938 539.496094 402.65625 537.925781 401.546875 C 536.351562 400.433594 536.007812 400.78125 534.128906 399.859375 C 532.214844 398.976562 532.136719 399.398438 528.535156 398.519531 C 524.96875 397.636719 521.941406 393.6875 520.484375 392.691406 C 519.027344 391.695312 518.144531 391.121094 517.226562 390.46875 C 516.34375 389.816406 514.429688 389.355469 511.515625 388.667969 C 508.601562 387.976562 508.371094 386.328125 507.375 385.101562 C 506.378906 383.875 505.917969 381.84375 502.125 379.390625 C 498.328125 376.9375 494.839844 371.648438 494.839844 371.648438 C 494.839844 371.648438 500.667969 375.902344 502.007812 377.015625 C 503.351562 378.125 507.375 379.46875 508.488281 380.578125 C 509.597656 381.691406 519.449219 386.175781 521.480469 387.058594 C 523.511719 387.9375 539.382812 398.25 540.492188 399.132812 C 541.679688 400.050781 543.902344 413.503906 543.902344 413.503906 Z M 543.902344 413.503906 "/>
<path style=" stroke:none;fill-rule:nonzero;fill:rgb(97.647059%,34.509804%,34.509804%);fill-opacity:1;" d="M 576.5625 403.808594 L 576.523438 404.074219 L 567.667969 455.359375 L 530.066406 455.359375 L 529.835938 454.171875 L 520.332031 403.808594 Z M 576.5625 403.808594 "/>
<path style=" stroke:none;fill-rule:nonzero;fill:rgb(89.803922%,28.235294%,28.235294%);fill-opacity:1;" d="M 576.523438 403.84375 L 567.667969 455.359375 L 530.066406 455.359375 L 529.835938 454.171875 L 570.773438 403.808594 Z M 576.523438 403.84375 "/>
<path style=" stroke:none;fill-rule:nonzero;fill:rgb(18.823529%,43.921569%,80.784314%);fill-opacity:1;" d="M 685.535156 234.425781 L 628.691406 234.425781 L 628.691406 269.039062 L 667.632812 269.039062 L 673.652344 283.257812 L 678.367188 269.039062 L 685.535156 269.039062 Z M 685.535156 234.425781 "/>
<path style=" stroke:none;fill-rule:nonzero;fill:rgb(11.372549%,32.941176%,70.980392%);fill-opacity:1;" d="M 645.863281 250.910156 C 645.863281 252.792969 644.335938 254.320312 642.449219 254.320312 C 640.566406 254.320312 639.039062 252.792969 639.039062 250.910156 C 639.039062 249.023438 640.566406 247.496094 642.449219 247.496094 C 644.335938 247.496094 645.863281 249.023438 645.863281 250.910156 Z M 645.863281 250.910156 "/>
<path style=" stroke:none;fill-rule:nonzero;fill:rgb(11.372549%,32.941176%,70.980392%);fill-opacity:1;" d="M 660.503906 250.910156 C 660.503906 252.792969 658.976562 254.320312 657.09375 254.320312 C 655.207031 254.320312 653.679688 252.792969 653.679688 250.910156 C 653.679688 249.023438 655.207031 247.496094 657.09375 247.496094 C 658.976562 247.496094 660.503906 249.023438 660.503906 250.910156 Z M 660.503906 250.910156 "/>
<path style=" stroke:none;fill-rule:nonzero;fill:rgb(11.372549%,32.941176%,70.980392%);fill-opacity:1;" d="M 675.183594 250.910156 C 675.183594 252.792969 673.65625 254.320312 671.773438 254.320312 C 669.890625 254.320312 668.363281 252.792969 668.363281 250.910156 C 668.363281 249.023438 669.890625 247.496094 671.773438 247.496094 C 673.65625 247.496094 675.183594 249.023438 675.183594 250.910156 Z M 675.183594 250.910156 "/>
</g>
</svg>
